<svg xmlns="http://www.w3.org/2000/svg" width="28.304" height="29.049" viewBox="0 0 28.304 29.049">
  <g id="car-insurance" transform="translate(-0.168 0)">
    <path id="Path_3202" data-name="Path 3202" d="M192.438,120h3.309v.345h-3.309Zm0,0" transform="translate(-179.014 -111.727)" fill="#8e8c8c"/>
    <path id="Path_3203" data-name="Path 3203" d="M308.438,174.843v.838a.914.914,0,0,0,.935.885h1.159a.849.849,0,0,0,.623-.255.858.858,0,0,0,.248-.63v-1.072a1.556,1.556,0,0,1-.871.234Zm0,0" transform="translate(-287.017 -162.572)" fill="#8e8c8c"/>
    <path id="Path_3204" data-name="Path 3204" d="M82.31,176.548h1.159a.917.917,0,0,0,.653-.255.887.887,0,0,0,.277-.63v-.838H82.31a1.584,1.584,0,0,1-.877-.235v1.073a.864.864,0,0,0,.877.885Zm0,0" transform="translate(-75.663 -162.553)" fill="#8e8c8c"/>
    <path id="Path_3205" data-name="Path 3205" d="M119.494.582A.9.9,0,0,0,118.644,0H107.419a.9.9,0,0,0-.851.583l-1.346,3.623h15.619Zm0,0" transform="translate(-97.811)" fill="#8e8c8c"/>
    <path id="Path_3206" data-name="Path 3206" d="M110.438,113h2.344v1.31h-2.344Zm0,0" transform="translate(-102.668 -105.21)" fill="#8e8c8c"/>
    <path id="Path_3207" data-name="Path 3207" d="M288.438,113h2.344v1.31h-2.344Zm0,0" transform="translate(-268.396 -105.21)" fill="#8e8c8c"/>
    <path id="Path_3208" data-name="Path 3208" d="M82.311,81.136H99.178a.86.86,0,0,0,.623-.266.885.885,0,0,0,.248-.641V76.61a1.585,1.585,0,0,0-.484-1.162c-.007-.007,0-.011,0-.018L99.156,75H82.571l-.576.538-.009.009a1.585,1.585,0,0,0-.55,1.222v3.46a.882.882,0,0,0,.877.907Zm12.429-4a.483.483,0,0,1,.483-.483h3.309a.483.483,0,0,1,.483.483v2.275a.483.483,0,0,1-.483.483H95.223a.483.483,0,0,1-.483-.483Zm-6.619.483a.483.483,0,0,1,.483-.483H92.81a.483.483,0,0,1,.483.483v1.31a.482.482,0,0,1-.483.483H88.6a.482.482,0,0,1-.483-.483Zm-5.653-.483a.483.483,0,0,1,.483-.483h3.309a.483.483,0,0,1,.483.483v2.275a.483.483,0,0,1-.483.483H82.952a.483.483,0,0,1-.483-.483Zm0,0" transform="translate(-75.664 -69.83)" fill="#8e8c8c"/>
    <path id="Path_3209" data-name="Path 3209" d="M71.671,251.121a3.088,3.088,0,0,1,2.206-.7l7.327.538h.023a6.63,6.63,0,0,0,3.868-1.257l8.358-8.184a1.853,1.853,0,0,0-2.214.064l-.01.008-4.16,3.11a3.6,3.6,0,0,1,.226.769.483.483,0,0,1-.392.559l-6.75,1.181a.483.483,0,0,1-.166-.951l6.231-1.09a2.621,2.621,0,0,0-2.9-1.659l-4.107.718a5.471,5.471,0,0,1-2.426-.126l-.459-.131a6.428,6.428,0,0,0-6.364,1.679l1.051,6.012Zm0,0" transform="translate(-64.98 -224.55)" fill="#8e8c8c"/>
    <path id="Path_3210" data-name="Path 3210" d="M.168,283.4l3.552-.622,1.562,8.931-3.552.622Zm0,0" transform="translate(0 -263.286)" fill="#8e8c8c"/>
  </g>
</svg>
