<svg xmlns="http://www.w3.org/2000/svg" width="28.304" height="27.69" viewBox="0 0 28.304 27.69"><g id="deposit" transform="translate(0 -5.552)"><g id="Group_9862" data-name="Group 9862" transform="translate(17.819 19.505)"><g id="Group_9861" data-name="Group 9861"><path id="Path_3211" fill="#8e8c8c" d="M323.055,257.951a.721.721,0,0,0-.72.721v2.408a.721.721,0,0,0,.72.72h9.765v-3.849h-9.765Zm1.215,3.035a1.111,1.111,0,1,1,1.111-1.111A1.111,1.111,0,0,1,324.27,260.986Z" data-name="Path 3211" transform="translate(-322.334 -257.951)"/></g></g><g id="Group_9864" data-name="Group 9864" transform="translate(0 11.298)"><g id="Group_9863" data-name="Group 9863" transform="translate(0 0)"><path id="Path_3212" fill="#8e8c8c" d="M18.54,116.025H28.3V111.9a2.4,2.4,0,0,0-2.4-2.4H2.4A2.4,2.4,0,0,0,0,111.9v17.14a2.4,2.4,0,0,0,2.4,2.4H25.9a2.4,2.4,0,0,0,2.4-2.4v-5.8H18.54a2.4,2.4,0,0,1-2.4-2.4v-2.408A2.4,2.4,0,0,1,18.54,116.025Z" data-name="Path 3212" transform="translate(0 -109.5)"/></g></g><g id="Group_9866" data-name="Group 9866" transform="translate(12.11 5.552)"><g id="Group_9865" data-name="Group 9865"><path id="Path_3213" fill="#8e8c8c" d="M230.475,5.552,219.067,9.617h12.856Z" data-name="Path 3213" transform="translate(-219.067 -5.552)"/></g></g></g></svg>