<svg xmlns="http://www.w3.org/2000/svg" id="Docs_3_" width="22.639" height="29.72" viewBox="0 0 22.639 29.72"><g id="Group_9937" data-name="Group 9937"><g id="Group_9936" data-name="Group 9936"><g id="Group_9935" data-name="Group 9935"><g id="Group_9934" data-name="Group 9934"><path id="Path_3319" fill="#4086f4" d="M83.639,7.836,77.544,6.1,75.8,0H63.612A2.612,2.612,0,0,0,61,2.612v24.5a2.612,2.612,0,0,0,2.612,2.612H81.026a2.612,2.612,0,0,0,2.612-2.612Z" data-name="Path 3319" transform="translate(-61)"/></g></g></g></g><path id="Path_3320" fill="#4175df" d="M267.319,7.836V27.108a2.612,2.612,0,0,1-2.612,2.612H256V0h3.483l1.741,6.1Z" data-name="Path 3320" transform="translate(-244.681)"/><path id="Path_3321" fill="#80aef8" d="M323.836,7.836h-6.1A1.747,1.747,0,0,1,316,6.1V0a.817.817,0,0,1,.609.261l6.966,6.966A.817.817,0,0,1,323.836,7.836Z" data-name="Path 3321" transform="translate(-301.198)"/><g id="Group_9938" data-name="Group 9938" transform="translate(5.224 12.248)"><path id="Path_3322" fill="#fff5f5" d="M162.319,212.741H151.871a.871.871,0,1,1,0-1.741h10.449a.871.871,0,1,1,0,1.741Z" data-name="Path 3322" transform="translate(-151 -211)"/></g><g id="Group_9939" data-name="Group 9939" transform="translate(5.224 15.731)"><path id="Path_3323" fill="#fff5f5" d="M162.319,272.741H151.871a.871.871,0,0,1,0-1.741h10.449a.871.871,0,1,1,0,1.741Z" data-name="Path 3323" transform="translate(-151 -271)"/></g><g id="Group_9940" data-name="Group 9940" transform="translate(5.224 19.214)"><path id="Path_3324" fill="#fff5f5" d="M162.319,332.741H151.871a.871.871,0,0,1,0-1.741h10.449a.871.871,0,1,1,0,1.741Z" data-name="Path 3324" transform="translate(-151 -331)"/></g><g id="Group_9941" data-name="Group 9941" transform="translate(5.224 22.697)"><path id="Path_3325" fill="#fff5f5" d="M158.836,392.741h-6.966a.871.871,0,0,1,0-1.741h6.966a.871.871,0,0,1,0,1.741Z" data-name="Path 3325" transform="translate(-151 -391)"/></g></svg>