<svg xmlns="http://www.w3.org/2000/svg" width="72.498" height="106.811" viewBox="0 0 72.498 106.811">
  <g id="Group_9953" data-name="Group 9953" transform="translate(-237 -110)">
    <path id="Path_3287" data-name="Path 3287" d="M686.162,392.43s.352,4.752.352,4.928-2.464,12.32-2.464,12.32-3.52,6.688,0,6.512,2.464-6.336,2.464-6.336l3.7-10.208-1.584-7.216Z" transform="translate(-397.153 -237.449)" fill="#ffb8b8"/>
    <path id="Path_3288" data-name="Path 3288" d="M455.516,666.082l.528,3.872-3.7.352.528-4.752Z" transform="translate(-149.083 -457.844)" fill="#ffb8b8"/>
    <path id="Path_3289" data-name="Path 3289" d="M391.6,666.082l-.528,3.872,3.7.352-.528-4.752Z" transform="translate(-96.785 -457.844)" fill="#ffb8b8"/>
    <path id="Path_3290" data-name="Path 3290" d="M713.1,502.643l-.88,1.232s-.528,5.28,0,7.04,1.584,9.856,1.584,10.384.176.88,0,1.056a7.1,7.1,0,0,0,0,1.936v.88l2.288,13.024s-1.408,1.584-.352,1.584,4.928,0,4.752-1.76l-.352-.176s-.528-11.616-.352-12.144.352-3.872.352-3.872l1.584-10.736,2.992,10.384.7,15.488s-.7,1.76,0,2.112,3.7,1.584,3.872-.176,1.056-17.072,1.056-17.776S730,509.507,730,509.507a12.991,12.991,0,0,1,.352-2.112c.176-.352-.176-.7,0-1.232a6.9,6.9,0,0,0-.352-2.288l-7.92-2.112Z" transform="translate(-422.333 -330.715)" fill="#2f2e41"/>
    <path id="Path_3291" data-name="Path 3291" d="M732.512,771.769s.88-.88-.352-.88a5.725,5.725,0,0,0-2.288.528l-.88,3.168s-3.608,2.9.44,2.552,4.664-.44,4.84-.792a30.847,30.847,0,0,0-.244-4.356.409.409,0,0,0-.659-.286A.692.692,0,0,1,732.512,771.769Z" transform="translate(-435.583 -560.355)" fill="#2f2e41"/>
    <path id="Path_3292" data-name="Path 3292" d="M799.865,771.769s-.88-.88.352-.88a5.726,5.726,0,0,1,2.288.528l.88,3.168s3.608,2.9-.44,2.552-5.192-.44-5.368-.792a26.719,26.719,0,0,1,.652-4.322.5.5,0,0,1,.8-.3A.687.687,0,0,0,799.865,771.769Z" transform="translate(-495.368 -560.355)" fill="#2f2e41"/>
    <path id="Path_3293" data-name="Path 3293" d="M724.4,278.85s.7,3.52.7,4.048,2.992,2.112,2.992,2.112l3.344-4.224s-2.112-2.992-2.112-3.7Z" transform="translate(-432.93 -139.114)" fill="#ffb8b8"/>
    <path id="Path_3294" data-name="Path 3294" d="M702.432,298.874a4.438,4.438,0,0,1-2-1.084s-4.865,4.78-4.865,5.66l3.872,6.864s0,2.464.352,2.64,0,0,0,.7-1.056,5.28-.7,5.984.7.176.352,1.232-1.232,6.688-1.232,6.688a12.321,12.321,0,0,1,7.744.7c4.576,1.76,10.032-.7,10.032-.7s-1.408-3.168-1.056-4.224-.88-2.992-.88-2.992l-.88-16.192s1.232-7.216.352-7.568l-1.76-.7-5.636-.693S704.72,298.7,702.432,298.874Z" transform="translate(-408.319 -154.561)" fill="#00818a"/>
    <path id="Path_3295" data-name="Path 3295" d="M695.049,343.171l-1.76,1.232s-.88,2.64,0,3.872a9.025,9.025,0,0,1,1.232,2.992l3.52-.352Z" transform="translate(-406.04 -195.431)" fill="#00818a"/>
    <path id="Path_3296" data-name="Path 3296" d="M405.127,111.446V95.4a9.288,9.288,0,0,0-9.288-9.288h-34a9.288,9.288,0,0,0-9.288,9.288v88.038a9.288,9.288,0,0,0,9.288,9.288h34a9.288,9.288,0,0,0,9.288-9.288v-71.99Z" transform="translate(-115.552 23.889)" fill="#060101"/>
    <path id="Path_3297" data-name="Path 3297" d="M411.146,102.606h-4.438a3.3,3.3,0,0,1-3.051,4.54H384.179a3.3,3.3,0,0,1-3.051-4.54h-4.145a6.936,6.936,0,0,0-6.936,6.936v87.909a6.936,6.936,0,0,0,6.936,6.936h34.162a6.936,6.936,0,0,0,6.936-6.936h0V109.542A6.936,6.936,0,0,0,411.146,102.606Z" transform="translate(-130.484 9.81)" fill="#fff"/>
    <path id="Path_3298" data-name="Path 3298" d="M430.8,300.678H388.57a.783.783,0,0,1-.782-.782V289.421a.783.783,0,0,1,.782-.782H430.8a.783.783,0,0,1,.782.782V299.9A.783.783,0,0,1,430.8,300.678ZM388.57,288.951a.47.47,0,0,0-.469.469V299.9a.47.47,0,0,0,.469.469H430.8a.47.47,0,0,0,.469-.469V289.421a.47.47,0,0,0-.469-.469Z" transform="translate(-145.626 -148.97)" fill="#e6e6e6"/>
    <circle id="Ellipse_477" data-name="Ellipse 477" cx="3.186" cy="3.186" r="3.186" transform="translate(246.32 142.101)" fill="#e6e6e6"/>
    <path id="Path_3299" data-name="Path 3299" d="M485.046,312.49a.531.531,0,1,0,0,1.062h25.029a.531.531,0,1,0,0-1.062Z" transform="translate(-228.184 -169.327)" fill="#e6e6e6"/>
    <path id="Path_3300" data-name="Path 3300" d="M485.046,334.235a.531.531,0,1,0,0,1.062h10.77a.531.531,0,1,0,0-1.062Z" transform="translate(-228.184 -187.887)" fill="#e6e6e6"/>
    <path id="Path_3301" data-name="Path 3301" d="M430.8,532.678H388.57a.783.783,0,0,1-.782-.782V521.421a.783.783,0,0,1,.782-.782H430.8a.783.783,0,0,1,.782.782V531.9A.783.783,0,0,1,430.8,532.678ZM388.57,520.951a.47.47,0,0,0-.469.469V531.9a.47.47,0,0,0,.469.469H430.8a.47.47,0,0,0,.469-.469V521.421a.47.47,0,0,0-.469-.469Z" transform="translate(-145.626 -346.841)" fill="#e6e6e6"/>
    <circle id="Ellipse_478" data-name="Ellipse 478" cx="3.186" cy="3.186" r="3.186" transform="translate(246.32 176.231)" fill="#e6e6e6"/>
    <path id="Path_3302" data-name="Path 3302" d="M485.046,544.49a.531.531,0,1,0,0,1.062h25.029a.531.531,0,1,0,0-1.062Z" transform="translate(-228.184 -367.198)" fill="#e6e6e6"/>
    <path id="Path_3303" data-name="Path 3303" d="M485.046,566.235a.531.531,0,1,0,0,1.062h10.77a.531.531,0,1,0,0-1.062Z" transform="translate(-228.184 -385.751)" fill="#e6e6e6"/>
    <rect id="Rectangle_2565" data-name="Rectangle 2565" width="0.293" height="11.727" transform="translate(274.287 157.794)" fill="#fff"/>
    <path id="Path_3305" data-name="Path 3305" d="M429.322,411.841a.767.767,0,0,0-.523-.2H386.57a.784.784,0,0,0-.782.782v10.476a.784.784,0,0,0,.782.782H428.8a.783.783,0,0,0,.781-.782V412.419A.776.776,0,0,0,429.322,411.841Zm-.054,11.054a.47.47,0,0,1-.469.469H386.57a.469.469,0,0,1-.469-.469V412.419a.468.468,0,0,1,.469-.469H428.8a.469.469,0,0,1,.469.469Z" transform="translate(-143.919 -253.843)" fill="#e6e6e6"/>
    <path id="Path_3306" data-name="Path 3306" d="M421.131,449.487H411.044a.531.531,0,1,0,0,1.062h10.087a.531.531,0,1,0,0-1.062Z" transform="translate(-165.022 -286.142)" fill="#e6e6e6"/>
    <path id="Path_3307" data-name="Path 3307" d="M556.806,443.541a.967.967,0,0,0-1.3.1.994.994,0,0,0,.049,1.375l1.235,1.235a.147.147,0,0,0,.207,0l1.235-1.235a.994.994,0,0,0,.049-1.375.967.967,0,0,0-1.3-.1A.139.139,0,0,1,556.806,443.541Z" transform="translate(-288.558 -280.891)" fill="#fff"/>
    <path id="Path_3312" data-name="Path 3312" d="M640.658,443.367h-1.025v-.147a.293.293,0,0,0-.586,0v.147h-1.025a.073.073,0,0,0,0,.146h2.637a.073.073,0,1,0,0-.146Z" transform="translate(-359.14 -280.545)" fill="#fff"/>
    <circle id="Ellipse_479" data-name="Ellipse 479" cx="4.576" cy="4.576" r="4.576" transform="translate(288.481 131.817)" fill="#ffb8b8"/>
    <path id="Path_3313" data-name="Path 3313" d="M702.4,216.834l-.794-.318a5.415,5.415,0,0,1,3.969-1.668l-.649-.715a2.761,2.761,0,0,1,3.031,1.033,14.085,14.085,0,0,1,2.184,3.069h.85l-.355.781,1.242.781-1.275-.14a4.324,4.324,0,0,1-.12,2.023l.034.617a18.987,18.987,0,0,1-1.477-2.6v.794s-.794-.715-.794-1.192l-.433.556-.217-.874-2.67.874.433-.715-1.66.238.649-.874s-1.876,1.033-1.949,1.907a4.686,4.686,0,0,1-1.01,1.986l-.433-.794S700.31,218.025,702.4,216.834Z" transform="translate(-412.839 -85.277)" fill="#2f2e41"/>
    <path id="Path_3314" data-name="Path 3314" d="M695.706,353.984a13.464,13.464,0,0,0-.806,5.214,2.748,2.748,0,0,0,.454,1.3h0l-12.486,5.928s-5.642.584-4.234,3.048,6.512-1.232,6.512-1.232,13.376-1.936,14.432-3.872,1.76-10.032,1.76-10.032Z" transform="translate(-393.673 -204.652)" fill="#ffb8b8"/>
    <path id="Path_3315" data-name="Path 3315" d="M792.917,304.724h2.64s1.936.352,2.464,3.872,1.056,4.4.528,4.4-6.864-.176-6.864-.352S792.917,304.724,792.917,304.724Z" transform="translate(-490.355 -162.699)" fill="#00818a"/>
    <text id="K_Y_C" data-name="K Y C" transform="translate(262 160)" fill="#000404" font-size="2" font-family="SegoeUI, Segoe UI" letter-spacing="-0.024em"><tspan x="0" y="0">K Y C</tspan></text>
    <text id="Verification" transform="translate(262 166)" fill="#000404" font-size="1" font-family="SegoeUI, Segoe UI" letter-spacing="-0.024em"><tspan x="0" y="0">Verification</tspan></text>
  </g>
</svg>
