<svg id="power" xmlns="http://www.w3.org/2000/svg" width="28.304" height="28.304" viewBox="0 0 28.304 28.304">
  <g id="Group_9868" data-name="Group 9868" transform="translate(5.031 8.354)">
    <g id="Group_9867" data-name="Group 9867">
      <path id="Path_3214" data-name="Path 3214" d="M107.418,151.445a.829.829,0,0,0-1.326,1,7.385,7.385,0,0,1,1.492,4.472,7.463,7.463,0,1,1-14.926,0,7.386,7.386,0,0,1,1.492-4.472.829.829,0,1,0-1.327-1A9.039,9.039,0,0,0,91,156.913a9.121,9.121,0,0,0,18.243,0A9.039,9.039,0,0,0,107.418,151.445Z" transform="translate(-91 -151.115)" fill="#8e8c8c"/>
    </g>
  </g>
  <g id="Group_9870" data-name="Group 9870">
    <g id="Group_9869" data-name="Group 9869">
      <path id="Path_3215" data-name="Path 3215" d="M14.152,0A14.152,14.152,0,1,0,28.3,14.152,14.207,14.207,0,0,0,14.152,0ZM11.664,5.86a2.488,2.488,0,0,1,4.975,0v8.292a2.488,2.488,0,1,1-4.975,0Zm2.488,19.072A10.776,10.776,0,0,1,5.529,7.688a2.488,2.488,0,1,1,3.979,2.988,5.738,5.738,0,0,0-1.16,3.476,5.8,5.8,0,1,0,11.609,0,5.738,5.738,0,0,0-1.16-3.476,2.488,2.488,0,0,1,3.979-2.989,10.776,10.776,0,0,1-8.623,17.244Z" fill="#8e8c8c"/>
    </g>
  </g>
  <g id="Group_9872" data-name="Group 9872" transform="translate(13.323 5.031)">
    <g id="Group_9871" data-name="Group 9871">
      <path id="Path_3216" data-name="Path 3216" d="M241.829,91a.83.83,0,0,0-.829.829v8.292a.829.829,0,1,0,1.658,0V91.829A.83.83,0,0,0,241.829,91Z" transform="translate(-241 -91)" fill="#8e8c8c"/>
    </g>
  </g>
</svg>
