<svg xmlns="http://www.w3.org/2000/svg" width="313.298" height="90" viewBox="0 0 313.298 90"><g id="Group_9916" data-name="Group 9916" transform="translate(-48 -223)"><g id="Group_9912" data-name="Group 9912" transform="translate(-6319 -22)"><path id="Rectangle_2560" fill="#f44346" d="M7,0H84a0,0,0,0,1,0,0V13a0,0,0,0,1,0,0H6A6,6,0,0,1,0,7V7A7,7,0,0,1,7,0Z" data-name="Rectangle 2560" transform="translate(6367 300)"/><rect id="Rectangle_2561" width="75" height="13" fill="#f6a71d" data-name="Rectangle 2561" transform="translate(6456 300)"/><path id="Rectangle_2562" fill="#17b870" d="M0,0H105a6,6,0,0,1,6,6V7a6,6,0,0,1-6,6H0a0,0,0,0,1,0,0V0A0,0,0,0,1,0,0Z" data-name="Rectangle 2562" transform="translate(6536 300)"/></g><g id="Group_9915" data-name="Group 9915"><text id="BAD" fill="#afafaf" font-family="SegoeUI, Segoe UI" font-size="12" transform="translate(100 310)"><tspan x="-23.033" y="0">BAD</tspan></text><text id="AVERAGE" fill="#afafaf" font-family="SegoeUI, Segoe UI" font-size="12" transform="translate(202 310)"><tspan x="-49.43" y="0">AVERAGE</tspan></text><text id="GOOD" fill="#afafaf" font-family="SegoeUI, Segoe UI" font-size="12" transform="translate(284 310)"><tspan x="-34.74" y="0">GOOD</tspan></text></g><g id="Group_9914" data-name="Group 9914"><path id="Path_3285" fill="#17b970" d="M6597.256,230.266v36.186h38.684l9.01,9.01,9.01-9.01H6693.3V231.1l-96.042-.344" data-name="Path 3285" transform="translate(-6332 -7.266)"/><text id="_10_10" fill="#fff" data-name="10/10" font-family="SegoeUI, Segoe UI" font-size="23" transform="translate(350 249)"><tspan x="-46.696" y="0">10/</tspan><tspan y="0" font-size="12">10</tspan></text><path id="car_1_" fill="#fff" d="M22.319,72.148a.459.459,0,0,0-.4-.3H19.865a.46.46,0,0,0-.4.3,3.882,3.882,0,0,0-.117.453l-1.372-4.137a1.6,1.6,0,0,0-1.491-1.14H5.992A1.6,1.6,0,0,0,4.5,68.465L3.13,72.6a3.894,3.894,0,0,0-.117-.454.46.46,0,0,0-.4-.3H.558a.46.46,0,0,0-.4.3,2.389,2.389,0,0,0,0,1.7.46.46,0,0,0,.4.3h2.06l-.031.094a1.143,1.143,0,0,0-.721,1.089v7.583a.53.53,0,0,0,.506.552H4.918a.53.53,0,0,0,.506-.552V80.226H17.052v2.685a.53.53,0,0,0,.506.552H20.1a.53.53,0,0,0,.506-.552V75.329a1.143,1.143,0,0,0-.721-1.089l-.031-.094h2.059a.459.459,0,0,0,.4-.3A2.389,2.389,0,0,0,22.319,72.148ZM6.186,69.354h10.1l1.6,4.827H4.585Zm.282,8.227H4.337a.906.906,0,0,1,0-1.8H6.468a.906.906,0,0,1,0,1.8Zm11.671,0H16.008a.906.906,0,0,1,0-1.8h2.131a.906.906,0,0,1,0,1.8Z" data-name="car (1)" transform="translate(270.499 165.176)"/></g></g></svg>