<svg xmlns="http://www.w3.org/2000/svg" width="28.304" height="28.305" viewBox="0 0 28.304 28.305">
  <path id="settings" d="M26.752,11.079,24.535,10.8a11.145,11.145,0,0,0-.671-1.62l1.369-1.763a1.753,1.753,0,0,0-.144-2.334L23.232,3.222a1.758,1.758,0,0,0-2.341-.15L19.13,4.442a11.105,11.105,0,0,0-1.622-.671l-.282-2.214A1.766,1.766,0,0,0,15.474,0H12.832a1.766,1.766,0,0,0-1.753,1.553L10.8,3.771a10.977,10.977,0,0,0-1.622.671L7.414,3.072a1.755,1.755,0,0,0-2.334.144L3.222,5.073a1.758,1.758,0,0,0-.15,2.342L4.442,9.177a11.015,11.015,0,0,0-.671,1.62l-2.214.282A1.766,1.766,0,0,0,0,12.832v2.642a1.766,1.766,0,0,0,1.553,1.753l2.217.282a11.145,11.145,0,0,0,.671,1.62L3.072,20.892a1.753,1.753,0,0,0,.144,2.334l1.858,1.858a1.759,1.759,0,0,0,2.341.149l1.762-1.369a10.889,10.889,0,0,0,1.62.671l.282,2.213a1.766,1.766,0,0,0,1.753,1.559h2.642a1.766,1.766,0,0,0,1.753-1.553l.282-2.217a11.146,11.146,0,0,0,1.62-.671l1.763,1.369a1.753,1.753,0,0,0,2.334-.144l1.858-1.858a1.757,1.757,0,0,0,.15-2.341l-1.369-1.762a10.888,10.888,0,0,0,.671-1.62l2.213-.282A1.766,1.766,0,0,0,28.3,15.474V12.832a1.764,1.764,0,0,0-1.552-1.753Zm-12.6,8.97a5.9,5.9,0,1,1,5.9-5.9,5.9,5.9,0,0,1-5.9,5.9Z" transform="translate(0)" fill="#8e8c8c"/>
</svg>
