<svg id="sos" xmlns="http://www.w3.org/2000/svg" width="28.304" height="28.304" viewBox="0 0 28.304 28.304">
  <path id="Path_3217" data-name="Path 3217" d="M390.087,0h-1.708V28.3h1.708a5.141,5.141,0,0,0,5.125-5.125V5.125A5.141,5.141,0,0,0,390.087,0Z" transform="translate(-366.909)" fill="#e0230d"/>
  <path id="Path_3218" data-name="Path 3218" d="M26.6,5.125V23.179A5.141,5.141,0,0,1,21.47,28.3H5.125A5.14,5.14,0,0,1,0,23.179V5.125A5.141,5.141,0,0,1,5.125,0H21.47A5.141,5.141,0,0,1,26.6,5.125Z" fill="#ff5440"/>
  <g id="Group_9873" data-name="Group 9873" transform="translate(3.388 7.831)">
    <path id="Path_3219" data-name="Path 3219" d="M64.313,154.291a3.022,3.022,0,0,1-3.018-3.018.854.854,0,0,1,1.709,0,1.31,1.31,0,1,0,2.62,0v-1.139a1.311,1.311,0,0,0-1.31-1.31,3.022,3.022,0,0,1-3.018-3.018v-1.139a3.018,3.018,0,1,1,6.037,0,.854.854,0,0,1-1.709,0,1.31,1.31,0,1,0-2.62,0v1.139a1.311,1.311,0,0,0,1.31,1.31,3.022,3.022,0,0,1,3.018,3.018v1.139A3.022,3.022,0,0,1,64.313,154.291Z" transform="translate(-61.295 -141.648)" fill="#fff"/>
    <path id="Path_3220" data-name="Path 3220" d="M344.523,154.291a3.022,3.022,0,0,1-3.018-3.018.854.854,0,1,1,1.709,0,1.31,1.31,0,0,0,2.62,0v-1.139a1.311,1.311,0,0,0-1.31-1.31,3.022,3.022,0,0,1-3.018-3.018v-1.139a3.018,3.018,0,1,1,6.037,0,.854.854,0,1,1-1.709,0,1.31,1.31,0,1,0-2.62,0v1.139a1.311,1.311,0,0,0,1.31,1.31,3.022,3.022,0,0,1,3.018,3.018v1.139A3.022,3.022,0,0,1,344.523,154.291Z" transform="translate(-326.015 -141.648)" fill="#fff"/>
    <path id="Path_3221" data-name="Path 3221" d="M204.418,154.292a3.022,3.022,0,0,1-3.018-3.018v-6.606a3.018,3.018,0,0,1,6.037,0v6.606A3.022,3.022,0,0,1,204.418,154.292Zm0-10.934a1.311,1.311,0,0,0-1.31,1.31v6.606a1.31,1.31,0,0,0,2.62,0v-6.606A1.311,1.311,0,0,0,204.418,143.358Z" transform="translate(-193.655 -141.649)" fill="#fff"/>
  </g>
</svg>
