<svg xmlns="http://www.w3.org/2000/svg" width="28.304" height="27" viewBox="0 0 28.304 27">
  <g id="star" transform="translate(0 -11.796)">
    <g id="Group_9860" data-name="Group 9860" transform="translate(0 11.796)">
      <path id="Path_3198" data-name="Path 3198" d="M28.264,22.049a.829.829,0,0,0-.669-.564L18.82,20.209,14.9,12.258a.829.829,0,0,0-1.487,0L9.484,20.209.71,21.484A.829.829,0,0,0,.251,22.9L6.6,29.088,5.1,37.827a.829.829,0,0,0,1.2.874l7.848-4.126L22,38.7a.829.829,0,0,0,1.2-.874l-1.5-8.739,6.35-6.189A.829.829,0,0,0,28.264,22.049Z" transform="translate(0 -11.796)" fill="#8e8c8c"/>
    </g>
  </g>
</svg>
