<svg xmlns="http://www.w3.org/2000/svg" id="user_1_" width="115" height="115" data-name="user (1)" viewBox="0 0 115 115"><g id="Group_9858" data-name="Group 9858" transform="translate(73.89 110.738)"><path id="Path_3156" fill="#f9ede0" d="M300.382,451.92c-.6.2-1.2.4-1.806.578C299.184,452.316,299.784,452.12,300.382,451.92Z" data-name="Path 3156" transform="translate(-298.576 -450.819)"/><path id="Path_3157" fill="#f9ede0" d="M312.068,447.472c-.645.257-1.291.511-1.948.744C310.777,447.981,311.425,447.729,312.068,447.472Z" data-name="Path 3157" transform="translate(-307.263 -447.472)"/></g><circle id="Ellipse_468" cx="57.5" cy="57.5" r="57.5" fill="#efece8" data-name="Ellipse 468"/><g id="Group_9859" data-name="Group 9859" transform="translate(32.581 109.192)"><path id="Path_3158" fill="#f9ede0" d="M288.508,455.584q-.879.244-1.772.461Q287.63,455.829,288.508,455.584Z" data-name="Path 3158" transform="translate(-248.358 -452.03)"/><path id="Path_3159" fill="#f9ede0" d="M208.835,462.786c-.7-.049-1.4-.1-2.091-.178C207.437,462.683,208.136,462.737,208.835,462.786Z" data-name="Path 3159" transform="translate(-188.162 -457.316)"/><path id="Path_3160" fill="#f9ede0" d="M171.868,456.037q-.891-.217-1.772-.461Q170.978,455.822,171.868,456.037Z" data-name="Path 3160" transform="translate(-160.583 -452.024)"/><path id="Path_3161" fill="#f9ede0" d="M196.243,461.187c-.628-.081-1.253-.166-1.875-.267C194.988,461.021,195.615,461.1,196.243,461.187Z" data-name="Path 3161" transform="translate(-178.848 -456.046)"/><path id="Path_3162" fill="#f9ede0" d="M222.428,463.729c-1.057,0-2.1-.034-3.148-.089C220.323,463.7,221.371,463.729,222.428,463.729Z" data-name="Path 3162" transform="translate(-197.595 -458.093)"/><path id="Path_3163" fill="#f9ede0" d="M183.956,458.936c-.6-.111-1.2-.23-1.8-.36C182.754,458.707,183.354,458.826,183.956,458.936Z" data-name="Path 3163" transform="translate(-169.662 -454.282)"/><path id="Path_3164" fill="#f9ede0" d="M134.565,442.534q-1.339-.561-2.645-1.182Q133.227,441.976,134.565,442.534Z" data-name="Path 3164" transform="translate(-131.855 -441.32)"/><path id="Path_3165" fill="#f9ede0" d="M147.948,448.216c-.655-.236-1.3-.487-1.948-.744C146.645,447.729,147.293,447.981,147.948,448.216Z" data-name="Path 3165" transform="translate(-142.45 -445.926)"/><path id="Path_3166" fill="#f9ede0" d="M235.148,463.64c-1.043.055-2.091.089-3.148.089C233.057,463.729,234.1,463.7,235.148,463.64Z" data-name="Path 3166" transform="translate(-207.167 -458.093)"/><path id="Path_3167" fill="#f9ede0" d="M250.9,462.608c-.693.075-1.392.129-2.091.178C249.507,462.737,250.206,462.683,250.9,462.608Z" data-name="Path 3167" transform="translate(-219.816 -457.316)"/><path id="Path_3168" fill="#f9ede0" d="M276.388,458.576c-.6.131-1.194.249-1.8.36C275.192,458.825,275.792,458.707,276.388,458.576Z" data-name="Path 3168" transform="translate(-239.219 -454.282)"/><path id="Path_3169" fill="#f9ede0" d="M263.939,460.912c-.622.1-1.247.186-1.875.267C262.69,461.1,263.317,461.015,263.939,460.912Z" data-name="Path 3169" transform="translate(-229.791 -456.04)"/><path id="Path_3170" fill="#f9ede0" d="M324.025,441.368q-1.3.621-2.633,1.178C322.281,442.174,323.16,441.784,324.025,441.368Z" data-name="Path 3170" transform="translate(-274.437 -441.332)"/><path id="Path_3171" fill="#f9ede0" d="M159.934,452.5c-.608-.182-1.208-.378-1.806-.578C158.726,452.12,159.326,452.316,159.934,452.5Z" data-name="Path 3171" transform="translate(-151.577 -449.273)"/><path id="Path_3172" fill="#f9ede0" d="M318.839,446.128c-.277.117-.56.22-.839.331C318.277,446.348,318.56,446.245,318.839,446.128Z" data-name="Path 3172" transform="translate(-271.885 -444.914)"/><path id="Path_3173" fill="#f9ede0" d="M332.111,441.224l-.079.036C332.058,441.248,332.085,441.238,332.111,441.224Z" data-name="Path 3173" transform="translate(-282.444 -441.224)"/><path id="Path_3174" fill="#f9ede0" d="M178.468,457.727q-.609-.134-1.212-.279Q177.859,457.593,178.468,457.727Z" data-name="Path 3174" transform="translate(-165.971 -453.433)"/><path id="Path_3175" fill="#f9ede0" d="M190.633,460.25c-.41-.067-.818-.143-1.225-.218C189.818,460.107,190.224,460.184,190.633,460.25Z" data-name="Path 3175" transform="translate(-175.116 -455.378)"/><path id="Path_3176" fill="#f9ede0" d="M216.2,463.405c-.339-.018-.675-.053-1.012-.077C215.531,463.352,215.865,463.387,216.2,463.405Z" data-name="Path 3176" transform="translate(-194.519 -457.858)"/><path id="Path_3177" fill="#f9ede0" d="M203.132,462.15c-.4-.044-.792-.1-1.188-.15C202.34,462.051,202.734,462.107,203.132,462.15Z" data-name="Path 3177" transform="translate(-184.55 -456.858)"/><path id="Path_3178" fill="#f9ede0" d="M131.723,441.262l-.067-.03Z" data-name="Path 3178" transform="translate(-131.656 -441.23)"/><path id="Path_3179" fill="#f9ede0" d="M245.732,463.328c-.339.024-.673.059-1.012.077C245.059,463.387,245.393,463.352,245.732,463.328Z" data-name="Path 3179" transform="translate(-216.74 -457.858)"/><path id="Path_3180" fill="#f9ede0" d="M295.054,454.256c-.384.115-.77.222-1.158.329C294.284,454.478,294.67,454.371,295.054,454.256Z" data-name="Path 3180" transform="translate(-253.746 -451.031)"/><path id="Path_3181" fill="#f9ede0" d="M306.931,450.48c-.348.125-.7.238-1.051.356C306.23,450.718,306.583,450.6,306.931,450.48Z" data-name="Path 3181" transform="translate(-262.764 -448.189)"/><path id="Path_3182" fill="#f9ede0" d="M143.455,446.467c-.279-.111-.562-.216-.839-.331C142.893,446.251,143.176,446.354,143.455,446.467Z" data-name="Path 3182" transform="translate(-139.904 -444.92)"/><path id="Path_3183" fill="#f9ede0" d="M154.931,450.836c-.35-.119-.7-.232-1.051-.356C154.226,450.6,154.579,450.718,154.931,450.836Z" data-name="Path 3183" transform="translate(-148.38 -448.189)"/><path id="Path_3184" fill="#f9ede0" d="M258.444,462c-.4.051-.79.109-1.188.15C257.654,462.107,258.048,462.051,258.444,462Z" data-name="Path 3184" transform="translate(-226.173 -456.858)"/><path id="Path_3185" fill="#f9ede0" d="M283.06,457.44q-.6.145-1.212.279Q282.457,457.589,283.06,457.44Z" data-name="Path 3185" transform="translate(-244.679 -453.427)"/><path id="Path_3186" fill="#f9ede0" d="M270.858,460.032c-.408.075-.814.152-1.225.218C270.044,460.184,270.45,460.107,270.858,460.032Z" data-name="Path 3186" transform="translate(-235.486 -455.378)"/><path id="Path_3187" fill="#f9ede0" d="M166.582,454.585c-.386-.107-.774-.214-1.158-.329C165.808,454.371,166.194,454.478,166.582,454.585Z" data-name="Path 3187" transform="translate(-157.067 -451.031)"/></g><path id="Path_3188" fill="#c6c3bd" d="M110.7,115.544a23.758,23.758,0,1,0-26.284,0l0,0a0,0,0,0,1,0,0A45.589,45.589,0,0,0,53.344,148.22l0,0c.626.754,1.275,1.491,1.938,2.213.16.176.329.344.493.517.511.542,1.028,1.077,1.558,1.6.22.216.443.424.667.635.491.467.988.929,1.495,1.378.251.222.507.441.76.659q.745.638,1.513,1.251c.269.216.54.428.812.639q.778.6,1.578,1.168c.275.2.546.4.826.588.562.388,1.134.76,1.711,1.128.259.164.513.335.774.5.665.41,1.342.8,2.025,1.186.18.1.356.21.539.309q1.324.725,2.691,1.384l.067.03q1.3.624,2.645,1.182c.277.117.56.22.839.331.645.257,1.291.511,1.948.744.348.125.7.238,1.051.356.6.2,1.2.4,1.806.578.384.115.77.222,1.158.329q.879.244,1.772.461.6.146,1.212.279c.6.131,1.194.249,1.8.36.408.075.814.152,1.225.218.622.1,1.247.186,1.875.267.4.051.79.109,1.188.15.693.075,1.392.129,2.091.178.339.024.673.059,1.012.077,1.043.059,2.091.093,3.148.093s2.1-.034,3.148-.089c.339-.018.675-.053,1.012-.077.7-.049,1.4-.1,2.091-.178.4-.044.792-.1,1.188-.15.628-.081,1.253-.166,1.875-.267.41-.067.818-.143,1.225-.218.6-.111,1.2-.23,1.8-.36q.609-.134,1.212-.279.891-.217,1.772-.461c.386-.107.774-.214,1.158-.329.608-.182,1.208-.378,1.806-.578.35-.119.7-.232,1.051-.356.655-.236,1.3-.487,1.948-.744.279-.111.562-.216.839-.331.889-.372,1.768-.762,2.633-1.178l.079-.036q1.366-.656,2.691-1.384c.182-.1.358-.208.539-.309.683-.384,1.36-.776,2.025-1.186.261-.16.517-.331.774-.5.576-.368,1.148-.742,1.711-1.128.277-.192.55-.39.826-.588q.8-.573,1.578-1.168c.273-.21.542-.424.812-.639q.766-.612,1.513-1.251c.255-.218.511-.438.76-.659.507-.449,1-.911,1.495-1.378.222-.212.447-.422.667-.636q.8-.784,1.558-1.6c.162-.174.331-.342.493-.517.663-.723,1.313-1.459,1.938-2.213l0,0A45.582,45.582,0,0,0,110.7,115.544Z" data-name="Path 3188" transform="translate(-40.143 -54.182)"/></svg>