<svg xmlns="http://www.w3.org/2000/svg" id="bus" width="30.444" height="22.906" viewBox="0 0 30.444 22.906"><path id="Path_3125" fill="#707070" d="M336.624,90H333v3.624h3.624Zm0,0" data-name="Path 3125" transform="translate(-325.939 -84.564)"/><path id="Path_3126" fill="#707070" d="M5.436,90H0v3.624H5.436Zm0,0" data-name="Path 3126" transform="translate(25.008 -84.564)"/><path id="Path_3127" fill="#707070" d="M215.618,180H210v9.061h5.618Zm0,0" data-name="Path 3127" transform="translate(-197.616 -169.127)"/><path id="Path_3128" fill="#707070" d="M215.618,90H210v3.624h5.618Zm0,0" data-name="Path 3128" transform="translate(-197.616 -84.564)"/><path id="Path_3129" fill="#707070" d="M123.624,90H120v3.624h3.624Zm0,0" data-name="Path 3129" transform="translate(-100.3 -84.564)"/><path id="Path_3130" fill="#707070" d="M423,92.313,424.192,90h4.184v3.624H423Zm0,0" data-name="Path 3130" transform="translate(-423 -84.563)"/><path id="Path_3131" fill="#707070" d="M8.155,189.061a3.624,3.624,0,0,0-7.249,0H0V180H10.873v6.343A2.721,2.721,0,0,1,8.155,189.061Zm0,0" data-name="Path 3131" transform="translate(19.571 -169.127)"/><path id="Path_3132" fill="#707070" d="M333.846,183.624H333V180h10.813v9.061h-.906a3.624,3.624,0,1,0-7.249,0A2.67,2.67,0,0,1,333,186.343v-.906h.846a.906.906,0,1,0,0-1.812Zm0,0" data-name="Path 3132" transform="translate(-333 -169.127)"/><path id="Path_3133" fill="#707070" d="M1.043,1.5A2.656,2.656,0,0,1,3.434,0h22.24a2.7,2.7,0,0,1,2.673,2.718v.906H0Zm0,0" data-name="Path 3133" transform="translate(2.097 0)"/><path id="Path_3134" fill="#707070" d="M12.377,52.156a2.7,2.7,0,0,0-2.57,2.809,2.978,2.978,0,0,0,.023.353,2.659,2.659,0,0,0,2.547,2.455A2.673,2.673,0,0,0,14.936,55.2c.006-.079.011-.159.011-.24A2.7,2.7,0,0,0,12.377,52.156Zm-1.286,1.75.524.573a1.022,1.022,0,0,0-.093.247h-.739A1.825,1.825,0,0,1,11.091,53.906Zm-.311,1.306h.744a.991.991,0,0,0,.093.244l-.525.574A1.847,1.847,0,0,1,10.779,55.212Zm1.376,1.5a1.532,1.532,0,0,1-.745-.338l.522-.571a.844.844,0,0,0,.223.1Zm0-2.679a.853.853,0,0,0-.227.1l-.523-.572a1.527,1.527,0,0,1,.751-.339Zm.445-.809a1.53,1.53,0,0,1,.751.34l-.523.572a.853.853,0,0,0-.227-.1v-.808Zm0,3.487V55.9a.838.838,0,0,0,.223-.1l.523.571A1.532,1.532,0,0,1,12.6,56.709Zm1.064-.677-.527-.577a1,1,0,0,0,.1-.243h.739A1.844,1.844,0,0,1,13.664,56.032Zm-.43-1.306a1.036,1.036,0,0,0-.093-.247l.524-.573a1.845,1.845,0,0,1,.308.82h-.739Z" data-name="Path 3134" transform="translate(-5.873 -34.867)"/><path id="Path_3135" fill="#707070" d="M12.377,52.156a2.7,2.7,0,0,0-2.57,2.809,2.978,2.978,0,0,0,.023.353,2.659,2.659,0,0,0,2.547,2.455A2.673,2.673,0,0,0,14.936,55.2c.006-.079.011-.159.011-.24A2.7,2.7,0,0,0,12.377,52.156Zm-1.286,1.75.524.573a1.022,1.022,0,0,0-.093.247h-.739A1.825,1.825,0,0,1,11.091,53.906Zm-.311,1.306h.744a.991.991,0,0,0,.093.244l-.525.574A1.847,1.847,0,0,1,10.779,55.212Zm1.376,1.5a1.532,1.532,0,0,1-.745-.338l.522-.571a.844.844,0,0,0,.223.1Zm0-2.679a.853.853,0,0,0-.227.1l-.523-.572a1.527,1.527,0,0,1,.751-.339Zm.445-.809a1.53,1.53,0,0,1,.751.34l-.523.572a.853.853,0,0,0-.227-.1v-.808Zm0,3.487V55.9a.838.838,0,0,0,.223-.1l.523.571A1.532,1.532,0,0,1,12.6,56.709Zm1.064-.677-.527-.577a1,1,0,0,0,.1-.243h.739A1.844,1.844,0,0,1,13.664,56.032Zm-.43-1.306a1.036,1.036,0,0,0-.093-.247l.524-.573a1.845,1.845,0,0,1,.308.82h-.739Z" data-name="Path 3135" transform="translate(11.524 -34.867)"/></svg>