<svg xmlns="http://www.w3.org/2000/svg" width="30.419" height="11.084" viewBox="0 0 30.419 11.084">
  <g id="car-suv_1_" data-name="car-suv (1)" transform="translate(0 -32.777)">
    <g id="Group_9856" data-name="Group 9856" transform="translate(0 32.777)">
      <path id="Path_3150" data-name="Path 3150" d="M30.144,39.131l-.208-.035a13.708,13.708,0,0,0-.874-5.524h.275a.245.245,0,0,0,.236-.253v-.29a.245.245,0,0,0-.236-.252H12.574a1.307,1.307,0,0,0-.7.2L6.794,36.187S1.708,36.407.92,37.24a4.241,4.241,0,0,0-.89,2.21,3.578,3.578,0,0,0,.407,2.2,1.348,1.348,0,0,0,.508.326l.124.252a.447.447,0,0,0,.41.257l.818-.021V40.053a1.644,1.644,0,0,1,1.587-1.695H6.054a1.44,1.44,0,0,1,1.391,1.486v2.486h.037l13.275-.218.191.021v-2.08a1.644,1.644,0,0,1,1.586-1.695H24.7a1.44,1.44,0,0,1,1.39,1.486v2.719l1.832-.415a.329.329,0,0,0,.223-.185l.134-.285,1.853-.259a.341.341,0,0,0,.283-.346v-1.6A.343.343,0,0,0,30.144,39.131ZM14.2,36.344a.209.209,0,0,1-.157.073H10a1.24,1.24,0,0,0,.378-.331.84.84,0,0,0-.088-.807,1.248,1.248,0,0,0-.4-.238L11.917,33.7a.785.785,0,0,1,.433-.131h1.721a.208.208,0,0,1,.153.068.237.237,0,0,1,.062.164l-.03,2.366A.24.24,0,0,1,14.2,36.344Zm5.079-.192a.719.719,0,0,1-.551.285l-3.236.075a.208.208,0,0,1-.155-.065.238.238,0,0,1-.065-.165V33.8a.222.222,0,0,1,.215-.229h3.592a.22.22,0,0,1,.214.209l.145,1.739A.826.826,0,0,1,19.277,36.152Zm9.574,0a.1.1,0,0,1-.091.055l-6.574.053a.813.813,0,0,1-.7-.41l-.689-1.97a.242.242,0,0,1,.024-.211.212.212,0,0,1,.176-.1H27.95a.217.217,0,0,1,.2.159l.7,2.311A.12.12,0,0,1,28.851,36.154Z" transform="translate(0 -32.777)" fill="#707070"/>
      <path id="Path_3151" data-name="Path 3151" d="M10.6,51.364A2.43,2.43,0,0,0,8.253,53.87a2.686,2.686,0,0,0,.02.316A2.4,2.4,0,0,0,10.6,56.377a2.413,2.413,0,0,0,2.337-2.293c.006-.072.01-.142.01-.214A2.429,2.429,0,0,0,10.6,51.364ZM9.424,52.926l.479.511a.869.869,0,0,0-.085.221H9.143A1.616,1.616,0,0,1,9.424,52.926Zm-.283,1.166h.68a.876.876,0,0,0,.085.218l-.48.512A1.628,1.628,0,0,1,9.141,54.092ZM10.4,55.427a1.4,1.4,0,0,1-.68-.3l.477-.51a.787.787,0,0,0,.2.088Zm0-2.39a.8.8,0,0,0-.207.092l-.477-.511a1.408,1.408,0,0,1,.684-.3v.722Zm.406-.722a1.4,1.4,0,0,1,.686.3l-.478.51a.762.762,0,0,0-.209-.092v-.722Zm0,3.112V54.7a.77.77,0,0,0,.2-.089l.477.511A1.4,1.4,0,0,1,10.8,55.427Zm.973-.6-.481-.514a.893.893,0,0,0,.087-.217h.674A1.608,1.608,0,0,1,11.775,54.822Zm-.394-1.164a.894.894,0,0,0-.084-.221l.478-.511a1.614,1.614,0,0,1,.281.732Z" transform="translate(-5.73 -45.293)" fill="#707070"/>
      <path id="Path_3152" data-name="Path 3152" d="M71.6,51.364a2.43,2.43,0,0,0-2.347,2.506,2.561,2.561,0,0,0,.021.316,2.333,2.333,0,0,0,4.662-.1c.006-.072.01-.142.01-.214A2.429,2.429,0,0,0,71.6,51.364Zm-1.175,1.562.479.511a.868.868,0,0,0-.085.221H70.14A1.609,1.609,0,0,1,70.421,52.926Zm-.283,1.166h.68a.874.874,0,0,0,.085.218l-.48.512A1.624,1.624,0,0,1,70.137,54.092Zm1.255,1.335a1.4,1.4,0,0,1-.681-.3l.478-.51a.792.792,0,0,0,.2.088Zm0-2.39a.811.811,0,0,0-.208.092l-.477-.511a1.405,1.405,0,0,1,.684-.3v.722Zm.407-.722a1.4,1.4,0,0,1,.686.3l-.478.51a.764.764,0,0,0-.208-.092v-.722Zm0,3.112V54.7a.776.776,0,0,0,.2-.089l.477.511A1.405,1.405,0,0,1,71.8,55.427Zm.972-.6-.481-.514a.893.893,0,0,0,.087-.217h.674A1.611,1.611,0,0,1,72.771,54.822Zm-.394-1.164a.93.93,0,0,0-.084-.221l.478-.511a1.621,1.621,0,0,1,.281.732Z" transform="translate(-48.076 -45.293)" fill="#707070"/>
    </g>
  </g>
</svg>
