<svg xmlns="http://www.w3.org/2000/svg" width="30.674" height="13.662" viewBox="0 0 30.674 13.662">
  <g id="car" transform="translate(0.001 -27.327)">
    <g id="Group_9853" data-name="Group 9853" transform="translate(-0.001 27.327)">
      <path id="Path_3120" data-name="Path 3120" d="M78.823,56.994a2.568,2.568,0,0,0,.023.33,2.619,2.619,0,0,0,5.208-.106c.006-.074.012-.149.012-.224a2.621,2.621,0,0,0-5.243,0Zm4.248-.222h-.753a.905.905,0,0,0-.1-.231l.535-.535A1.63,1.63,0,0,1,83.071,56.772Zm-.314,1.219-.538-.538a.876.876,0,0,0,.1-.227h.753A1.64,1.64,0,0,1,82.757,57.991Zm-1.086-.124a.876.876,0,0,0,.227-.093l.533.534a1.633,1.633,0,0,1-.76.315v-.756Zm0-2.5a1.626,1.626,0,0,1,.765.317l-.534.534a.89.89,0,0,0-.232-.1v-.754Zm-1.541.638.535.535a.9.9,0,0,0-.1.231h-.753A1.639,1.639,0,0,1,80.131,56.007Zm1.086.116a.884.884,0,0,0-.232.1l-.534-.534a1.636,1.636,0,0,1,.765-.317v.754Zm-.761,2.185.533-.533a.891.891,0,0,0,.228.092v.756A1.634,1.634,0,0,1,80.457,58.307Zm-.642-1.082h.759a.9.9,0,0,0,.1.228l-.536.536A1.636,1.636,0,0,1,79.815,57.226Z" transform="translate(-54.286 -45.954)" fill="#707070"/>
      <path id="Path_3121" data-name="Path 3121" d="M9.2,56.994a2.621,2.621,0,0,0,5.232.224c.007-.074.012-.149.012-.224a2.622,2.622,0,0,0-5.243,0Zm4.249-.222h-.754a.894.894,0,0,0-.095-.231l.535-.535A1.637,1.637,0,0,1,13.447,56.772Zm-.314,1.219-.538-.538a.886.886,0,0,0,.1-.227h.753A1.64,1.64,0,0,1,13.132,57.991Zm-1.086-.124a.878.878,0,0,0,.227-.093l.533.534a1.635,1.635,0,0,1-.76.315v-.756Zm0-2.5a1.624,1.624,0,0,1,.765.317l-.534.534a.888.888,0,0,0-.232-.1v-.754Zm-1.54.638.535.535a.9.9,0,0,0-.1.231h-.754A1.639,1.639,0,0,1,10.506,56.007Zm1.086.116a.88.88,0,0,0-.232.1l-.534-.534a1.637,1.637,0,0,1,.766-.317Zm-.76,2.185.533-.533a.886.886,0,0,0,.228.092v.756A1.633,1.633,0,0,1,10.832,58.307Zm-.642-1.082h.759a.906.906,0,0,0,.095.228l-.536.536A1.645,1.645,0,0,1,10.19,57.226Z" transform="translate(-6.334 -45.954)" fill="#707070"/>
      <path id="Path_3122" data-name="Path 3122" d="M.188,38.971l2.1-.033c-.009-.054-.021-.106-.028-.161a3.2,3.2,0,0,1-.028-.409,3.25,3.25,0,0,1,6.5,0c0,.093-.006.185-.013.277-.006.065-.016.129-.026.193L23.918,38.6c-.007-.08-.01-.157-.01-.231a3.248,3.248,0,0,1,6.462-.468,2.832,2.832,0,0,0,.289-1.477c-.13-1.014-1.014-2-1.066-2.494a10.285,10.285,0,0,0,.036-1.6,8.2,8.2,0,0,0-2.584-3.805c-.9-.571-1.543-.96-4.268-1.116a24.576,24.576,0,0,0-8.786.734A74.667,74.667,0,0,0,6.479,31.8a18.121,18.121,0,0,1-3.54,1.5A4.482,4.482,0,0,0,.4,35.67,4.875,4.875,0,0,0,.188,38.971Zm21.593-7.194-.4-3.424c2.235.039,4.554.215,4.757,1a2.269,2.269,0,0,1-1.222,1.9A12.246,12.246,0,0,1,21.781,31.777Zm-10.906-.506.255-.747a14.356,14.356,0,0,1,8.313-2.182h.53l-.431,3.651c-3.93.349-8.569.635-8.569.635A1.312,1.312,0,0,0,10.875,31.271Z" transform="translate(0.001 -27.327)" fill="#707070"/>
    </g>
  </g>
</svg>
