<svg xmlns="http://www.w3.org/2000/svg" width="30.415" height="20.179" viewBox="0 0 30.415 20.179"><g id="Glyph" transform="translate(-4 -12)"><path id="Path_3139" fill="#707070" d="M28.172,41H26v1.1h2.172Z" data-name="Path 3139" transform="translate(-5.706 -13.04)"/><path id="Path_3140" fill="#707070" d="M4,33H18.121v3.3H4Zm11.949,2.2h1.086V34.1H15.949Zm-2.172,0h1.086V34.1H13.776Zm-8.69,0H6.172V34.1H5.086Z" data-name="Path 3140" transform="translate(16.294 -9.443)"/><path id="Path_3141" fill="#707070" d="M20.889,42.254V41h1.69a3.86,3.86,0,0,0-.939,1.508Z" data-name="Path 3141" transform="translate(2.663 -13.04)"/><path id="Path_3143" fill="#707070" d="M18.121,29H4v1.1H18.121Z" data-name="Path 3143" transform="translate(16.294 -7.644)"/><path id="Path_3144" fill="#707070" d="M59.086,30.291a.547.547,0,0,1-.543.55H58V28.935l1.086-.735Z" data-name="Path 3144" transform="translate(-54 -7.284)"/><path id="Path_3145" fill="#707070" d="M37.086,20H36v4.4h1.086Z" data-name="Path 3145" transform="translate(-20.051 -3.597)"/><path id="Path_3146" fill="#707070" d="M34.172,23.007v-3.6l2.1-3.838A2.572,2.572,0,0,1,38.517,14.2h7.6V12h1.086V29.061H45.342l-1.394-2.354v-4.8h1.629a.547.547,0,0,0,.543-.55v-5.5a.547.547,0,0,0-.543-.55H43.405a.547.547,0,0,0-.543.55V26.309H36.888a.542.542,0,0,0-.465.267l-1.471,2.485H32v-1.1h2.172v-1.1H32v-2.2h.543a1.64,1.64,0,0,0,1.629-1.651Zm5.431,1.1h2.172v-1.1H39.6Zm-4.345-2.752a.547.547,0,0,0,.543.55h5.431a.547.547,0,0,0,.543-.55v-5.5a.547.547,0,0,0-.543-.55H37.974a.542.542,0,0,0-.471.275L35.33,19.43a.556.556,0,0,0-.072.275Z" data-name="Path 3146" transform="translate(-28)"/><path id="Path_3147" fill="#707070" d="M48.345,20v4.4H44v-.954L45.944,20Z" data-name="Path 3147" transform="translate(-35.655 -3.597)"/><path id="Path_3148" fill="#707070" d="M12.164,52.156a2.474,2.474,0,0,0-2.357,2.576,2.731,2.731,0,0,0,.021.324,2.439,2.439,0,0,0,2.336,2.252,2.451,2.451,0,0,0,2.347-2.356c.005-.072.01-.146.01-.22A2.473,2.473,0,0,0,12.164,52.156Zm-1.18,1.605.48.525a.937.937,0,0,0-.086.226H10.7A1.674,1.674,0,0,1,10.984,53.761Zm-.286,1.2h.683a.909.909,0,0,0,.086.223l-.482.526A1.694,1.694,0,0,1,10.7,54.959Zm1.261,1.373a1.4,1.4,0,0,1-.684-.31l.479-.524a.774.774,0,0,0,.2.091Zm0-2.457a.782.782,0,0,0-.208.095l-.48-.525a1.4,1.4,0,0,1,.688-.311Zm.408-.742a1.4,1.4,0,0,1,.688.311l-.48.525a.782.782,0,0,0-.208-.095v-.741Zm0,3.2v-.742a.768.768,0,0,0,.2-.091l.479.524A1.4,1.4,0,0,1,12.368,56.331Zm.976-.62-.483-.529a.915.915,0,0,0,.088-.223h.677A1.691,1.691,0,0,1,13.344,55.711Zm-.394-1.2a.95.95,0,0,0-.086-.226l.481-.525a1.692,1.692,0,0,1,.282.752h-.678Z" data-name="Path 3148" transform="translate(-1.09 -25.128)"/><path id="Path_3149" fill="#707070" d="M12.164,52.156a2.474,2.474,0,0,0-2.357,2.576,2.731,2.731,0,0,0,.021.324,2.439,2.439,0,0,0,2.336,2.252,2.451,2.451,0,0,0,2.347-2.356c.005-.072.01-.146.01-.22A2.473,2.473,0,0,0,12.164,52.156Zm-1.18,1.605.48.525a.937.937,0,0,0-.086.226H10.7A1.674,1.674,0,0,1,10.984,53.761Zm-.286,1.2h.683a.909.909,0,0,0,.086.223l-.482.526A1.694,1.694,0,0,1,10.7,54.959Zm1.261,1.373a1.4,1.4,0,0,1-.684-.31l.479-.524a.774.774,0,0,0,.2.091Zm0-2.457a.782.782,0,0,0-.208.095l-.48-.525a1.4,1.4,0,0,1,.688-.311Zm.408-.742a1.4,1.4,0,0,1,.688.311l-.48.525a.782.782,0,0,0-.208-.095v-.741Zm0,3.2v-.742a.768.768,0,0,0,.2-.091l.479.524A1.4,1.4,0,0,1,12.368,56.331Zm.976-.62-.483-.529a.915.915,0,0,0,.088-.223h.677A1.691,1.691,0,0,1,13.344,55.711Zm-.394-1.2a.95.95,0,0,0-.086-.226l.481-.525a1.692,1.692,0,0,1,.282.752h-.678Z" data-name="Path 3149" transform="translate(15.769 -25.128)"/></g></svg>