<svg xmlns="http://www.w3.org/2000/svg" width="30.039" height="15.709" viewBox="0 0 30.039 15.709">
  <g id="Group_9854" data-name="Group 9854" transform="translate(-38.111 -401)">
    <path id="bus_1_" data-name="bus (1)" d="M.225-4.61,1.772-8.435a3.423,3.423,0,0,1,3.1-2.233H27.07a3.166,3.166,0,0,1,2.969,3.327V.972a1.733,1.733,0,0,1-1.627,1.823H25.984a2.463,2.463,0,0,1-4.906,0H8.962A2.592,2.592,0,0,1,6.508,5.041,2.592,2.592,0,0,1,4.055,2.795H1.392A1.425,1.425,0,0,1,.055,1.673,1.8,1.8,0,0,1,0,1.235V-3.448A3.093,3.093,0,0,1,.225-4.61Zm27.311.673a.533.533,0,0,0,.5-.561V-8.985a.533.533,0,0,0-.5-.561h-3.5a.533.533,0,0,0-.5.561V-4.5a.533.533,0,0,0,.5.561ZM23.531,3.917a1.6,1.6,0,0,0,1.5-1.683,1.512,1.512,0,1,0-3,0A1.6,1.6,0,0,0,23.531,3.917ZM18.024-4.5a.533.533,0,0,0,.5.561h3.5a.533.533,0,0,0,.5-.561V-8.985a.533.533,0,0,0-.5-.561h-3.5a.533.533,0,0,0-.5.561Zm-5.507,0a.533.533,0,0,0,.5.561h3.5a.533.533,0,0,0,.5-.561V-8.985a.533.533,0,0,0-.5-.561h-3.5a.533.533,0,0,0-.5.561Zm-1.5.561a.533.533,0,0,0,.5-.561V-8.985a.533.533,0,0,0-.5-.561H7.51a.533.533,0,0,0-.5.561V-4.5a.533.533,0,0,0,.5.561ZM6.508,3.917a1.6,1.6,0,0,0,1.5-1.683A1.6,1.6,0,0,0,6.508.551a1.6,1.6,0,0,0-1.5,1.683A1.6,1.6,0,0,0,6.508,3.917ZM5.547-3.937A.545.545,0,0,0,6.008-4.5V-8.99a.529.529,0,0,0-.5-.556H4.876A2.423,2.423,0,0,0,2.683-7.97L1.136-4.144a1.8,1.8,0,0,0-.13.634Zm0,0" transform="translate(38.111 411.668)" fill="#00818a"/>
  </g>
</svg>
