<svg xmlns="http://www.w3.org/2000/svg" width="30.806" height="11.98" viewBox="0 0 30.806 11.98">
  <g id="sedan-car-model_1_" data-name="sedan-car-model (1)" transform="translate(0.001 -31.876)">
    <g id="Group_9688" data-name="Group 9688" transform="translate(-0.001 31.876)">
      <path id="Path_206" data-name="Path 206" d="M12.132,52.156A2.44,2.44,0,0,0,9.807,54.7a2.694,2.694,0,0,0,.021.319,2.406,2.406,0,0,0,2.3,2.221,2.418,2.418,0,0,0,2.315-2.324c.005-.071.01-.144.01-.217A2.439,2.439,0,0,0,12.132,52.156Zm-1.164,1.583.474.518a.924.924,0,0,0-.084.223H10.69A1.651,1.651,0,0,1,10.968,53.739Zm-.282,1.181h.673a.9.9,0,0,0,.084.22l-.475.519A1.671,1.671,0,0,1,10.686,54.921Zm1.244,1.354a1.385,1.385,0,0,1-.674-.306l.473-.517a.763.763,0,0,0,.2.089Zm0-2.423a.772.772,0,0,0-.205.094l-.473-.517a1.382,1.382,0,0,1,.679-.307Zm.4-.731a1.384,1.384,0,0,1,.679.307l-.473.517a.772.772,0,0,0-.205-.094V53.12Zm0,3.154v-.732a.758.758,0,0,0,.2-.09l.473.517A1.386,1.386,0,0,1,12.333,56.274Zm.963-.612-.477-.522a.9.9,0,0,0,.087-.22h.668A1.668,1.668,0,0,1,13.3,55.662Zm-.389-1.182a.937.937,0,0,0-.084-.223l.474-.518a1.669,1.669,0,0,1,.278.742h-.668Z" transform="translate(-6.754 -45.256)" fill="#707070"/>
      <path id="Path_207" data-name="Path 207" d="M74.141,52.156A2.44,2.44,0,0,0,71.816,54.7a2.694,2.694,0,0,0,.021.319,2.31,2.31,0,0,0,4.619-.1c.005-.071.01-.144.01-.217A2.439,2.439,0,0,0,74.141,52.156Zm-1.164,1.583.473.518a.924.924,0,0,0-.084.223H72.7A1.655,1.655,0,0,1,72.977,53.739ZM72.7,54.921h.673a.9.9,0,0,0,.084.22l-.475.519A1.657,1.657,0,0,1,72.7,54.921Zm1.244,1.354a1.385,1.385,0,0,1-.674-.306l.473-.517a.763.763,0,0,0,.2.089Zm0-2.423a.772.772,0,0,0-.205.094l-.473-.517a1.38,1.38,0,0,1,.679-.307Zm.4-.731a1.384,1.384,0,0,1,.679.307l-.473.517a.751.751,0,0,0-.205-.094V53.12Zm0,3.154v-.732a.758.758,0,0,0,.2-.09l.473.517A1.387,1.387,0,0,1,74.343,56.274Zm.962-.612-.477-.521a.892.892,0,0,0,.087-.22h.668A1.665,1.665,0,0,1,75.3,55.662Zm-.389-1.182a.924.924,0,0,0-.084-.223l.474-.518a1.669,1.669,0,0,1,.279.742h-.668Z" transform="translate(-49.462 -45.256)" fill="#707070"/>
      <path id="Path_208" data-name="Path 208" d="M30.261,37.461v-1.88a.6.6,0,0,0-.474-.605,21.181,21.181,0,0,1-2.341-.5c-.749-.252-3.643-1.592-4.645-1.843s-5.521-1.594-9.85.046c-.732.277-4.027,2-5.965,2.894-.571.014-6.218,1.3-6.519,2.182a15.245,15.245,0,0,0-.45,1.534,3.9,3.9,0,0,0,.42,2.041,6.275,6.275,0,0,0,2.2.561c-.011-.064-.023-.126-.03-.191a3.193,3.193,0,0,1-.024-.383,2.933,2.933,0,0,1,2.792-3.051,2.933,2.933,0,0,1,2.792,3.051c0,.086-.005.172-.011.257a3.219,3.219,0,0,1-.091.549h.007l13.857-.3c-.006-.039-.014-.078-.019-.118a3.181,3.181,0,0,1-.024-.383,2.933,2.933,0,0,1,2.792-3.051,2.933,2.933,0,0,1,2.792,3.051c0,.006,0,.012,0,.018l.059-.005,2.369-.488a2.243,2.243,0,0,0,.907-1.981A1.806,1.806,0,0,0,30.261,37.461ZM16.515,35.678l-5.175.173c.1-.847-.364-1.038-.364-1.038,2.057-2.041,6.2-2.11,6.2-2.11Zm5.808-.259-4.716.173.427-2.888a10.31,10.31,0,0,1,3.83.553l.7,1.228Zm2.659-.018H23.668L22.354,33.43A23.922,23.922,0,0,1,24.6,34.548.825.825,0,0,1,24.982,35.4Z" transform="translate(0.001 -31.876)" fill="#707070"/>
    </g>
  </g>
</svg>
