<svg xmlns="http://www.w3.org/2000/svg" width="30.877" height="25.024" viewBox="0 0 30.877 25.024">
  <g id="truck" transform="translate(0 -64)">
    <g id="Group_9857" data-name="Group 9857" transform="translate(0 64)">
      <path id="Path_3153" data-name="Path 3153" d="M4.211,70.256h4.21V64H28.07a2.98,2.98,0,0,1,2.807,3.128v17.2H28.07a4.474,4.474,0,0,1-4.21,4.692,4.474,4.474,0,0,1-4.21-4.692H11.228a4.474,4.474,0,0,1-4.21,4.692,4.474,4.474,0,0,1-4.21-4.692H0v-7.82ZM23.859,86.678a2.36,2.36,0,0,0,0-4.692,2.36,2.36,0,0,0,0,4.692Zm-16.842,0a2.36,2.36,0,0,0,0-4.692,2.36,2.36,0,0,0,0,4.692Zm1.4-10.166V72.6H4.912l-2.758,3.91Z" transform="translate(0 -64)" fill="#707070"/>
      <path id="Path_3154" data-name="Path 3154" d="M12.457,52.156a2.781,2.781,0,0,0-2.65,2.9,3.07,3.07,0,0,0,.023.364,2.742,2.742,0,0,0,2.626,2.531A2.756,2.756,0,0,0,15.1,55.3c.006-.081.011-.164.011-.247A2.78,2.78,0,0,0,12.457,52.156Zm-1.326,1.8.54.591a1.053,1.053,0,0,0-.1.254h-.761A1.882,1.882,0,0,1,11.13,53.961Zm-.321,1.346h.767a1.022,1.022,0,0,0,.1.251l-.541.591A1.9,1.9,0,0,1,10.809,55.307Zm1.418,1.544a1.579,1.579,0,0,1-.769-.349L12,55.913a.87.87,0,0,0,.23.1Zm0-2.762a.88.88,0,0,0-.234.107l-.54-.59a1.575,1.575,0,0,1,.774-.35Zm.459-.834a1.577,1.577,0,0,1,.774.35l-.539.59a.879.879,0,0,0-.234-.107v-.833Zm0,3.595v-.834a.863.863,0,0,0,.23-.1l.539.589A1.579,1.579,0,0,1,12.686,56.85Zm1.1-.7-.543-.594a1.028,1.028,0,0,0,.1-.25H14.1A1.9,1.9,0,0,1,13.783,56.152Zm-.444-1.347a1.068,1.068,0,0,0-.1-.254l.541-.591a1.9,1.9,0,0,1,.317.845H13.34Z" transform="translate(-5.728 -34.429)" fill="#707070"/>
      <path id="Path_3155" data-name="Path 3155" d="M12.457,52.156a2.781,2.781,0,0,0-2.65,2.9,3.07,3.07,0,0,0,.023.364,2.742,2.742,0,0,0,2.626,2.531A2.756,2.756,0,0,0,15.1,55.3c.006-.081.011-.164.011-.247A2.78,2.78,0,0,0,12.457,52.156Zm-1.326,1.8.54.591a1.053,1.053,0,0,0-.1.254h-.761A1.882,1.882,0,0,1,11.13,53.961Zm-.321,1.346h.767a1.022,1.022,0,0,0,.1.251l-.541.591A1.9,1.9,0,0,1,10.809,55.307Zm1.418,1.544a1.579,1.579,0,0,1-.769-.349L12,55.913a.87.87,0,0,0,.23.1Zm0-2.762a.88.88,0,0,0-.234.107l-.54-.59a1.575,1.575,0,0,1,.774-.35Zm.459-.834a1.577,1.577,0,0,1,.774.35l-.539.59a.879.879,0,0,0-.234-.107v-.833Zm0,3.595v-.834a.863.863,0,0,0,.23-.1l.539.589A1.579,1.579,0,0,1,12.686,56.85Zm1.1-.7-.543-.594a1.028,1.028,0,0,0,.1-.25H14.1A1.9,1.9,0,0,1,13.783,56.152Zm-.444-1.347a1.068,1.068,0,0,0-.1-.254l.541-.591a1.9,1.9,0,0,1,.317.845H13.34Z" transform="translate(11.295 -34.429)" fill="#707070"/>
    </g>
  </g>
</svg>
