<svg xmlns="http://www.w3.org/2000/svg" width="42.191" height="41.139" viewBox="0 0 42.191 41.139"><g id="_24-hours" data-name="24-hours" transform="translate(10.001 8.331)"><path id="Path_2850" fill="#e6e7e8" d="M38.167,16a2.991,2.991,0,0,0-2.21.65c-.072.048-.143.1-.214.152A15.124,15.124,0,1,0,11.065,34.07L9.48,33.814a.314.314,0,0,0-.1.619l2.467.4a.3.3,0,0,0,.05,0,.314.314,0,0,0,.2-.072c.006-.005.008-.013.014-.018a14.852,14.852,0,0,0,3.875,2.8,2.693,2.693,0,0,0-.241.826c-.161,1.68,1.986,5.311,6.665,6.259a9.417,9.417,0,0,0,1.878.187H24.4c3.425-.033,7.962-4.173,10.363-6.637,4.572-4.695,9.474-11.665,9.423-14.741-.068-4.051-4.3-7.087-6.018-7.435Z" data-name="Path 2850" transform="translate(-11.997 -12.006)"/><circle id="Ellipse_49" cx="14.814" cy="14.814" r="14.814" fill="#00818a" data-name="Ellipse 49" transform="translate(-10.001 19.046) rotate(-67.486)"/><g id="Group_9810" data-name="Group 9810" transform="translate(0.02 14.126)"><path id="Path_2851" fill="#fff" d="M24.566,63.274a.4.4,0,0,0-.311.133.539.539,0,0,0-.116.371v.895H22.814v-.895a.532.532,0,0,0-.119-.374.413.413,0,0,0-.315-.13.4.4,0,0,0-.314.134.548.548,0,0,0-.113.371v2.693a.549.549,0,0,0,.114.372.4.4,0,0,0,.313.135.412.412,0,0,0,.314-.132.533.533,0,0,0,.121-.375V65.407h1.325v1.065a.549.549,0,0,0,.114.372.4.4,0,0,0,.313.135.412.412,0,0,0,.314-.132A.533.533,0,0,0,25,66.472V63.779a.532.532,0,0,0-.119-.374.413.413,0,0,0-.315-.131Z" data-name="Path 2851" transform="translate(-21.952 -63.274)"/><path id="Path_2852" fill="#fff" d="M36.843,63.5a1.916,1.916,0,0,0-.954-.227,1.977,1.977,0,0,0-.731.128,1.506,1.506,0,0,0-.553.374,1.64,1.64,0,0,0-.346.59,2.3,2.3,0,0,0-.118.751,2.382,2.382,0,0,0,.113.742,1.647,1.647,0,0,0,.338.6,1.519,1.519,0,0,0,.56.387,2.16,2.16,0,0,0,1.5,0,1.5,1.5,0,0,0,.558-.385,1.65,1.65,0,0,0,.339-.592,2.379,2.379,0,0,0,.112-.747,2.183,2.183,0,0,0-.2-.971,1.489,1.489,0,0,0-.612-.65Zm-.179,2.263a.838.838,0,0,1-.321.374.887.887,0,0,1-.792.051.8.8,0,0,1-.278-.21,1,1,0,0,1-.191-.36,1.693,1.693,0,0,1-.07-.5,1.648,1.648,0,0,1,.07-.5,1,1,0,0,1,.184-.352.765.765,0,0,1,.273-.2.856.856,0,0,1,.349-.071.873.873,0,0,1,.471.128.827.827,0,0,1,.314.379,1.53,1.53,0,0,1,.114.617,1.509,1.509,0,0,1-.124.646Z" data-name="Path 2852" transform="translate(-30.319 -63.274)"/><path id="Path_2853" fill="#fff" d="M50.473,63.274a.4.4,0,0,0-.312.132.542.542,0,0,0-.115.373v1.7a.985.985,0,0,1-.15.6.611.611,0,0,1-.507.183.758.758,0,0,1-.411-.093.467.467,0,0,1-.193-.254,1.453,1.453,0,0,1-.06-.452V63.779a.54.54,0,0,0-.116-.371.41.41,0,0,0-.318-.133.4.4,0,0,0-.311.133.539.539,0,0,0-.116.371v1.644a2.421,2.421,0,0,0,.088.69,1.151,1.151,0,0,0,.285.493,1.176,1.176,0,0,0,.5.285,2.485,2.485,0,0,0,.7.089,1.984,1.984,0,0,0,.6-.083,1.236,1.236,0,0,0,.466-.271,1.124,1.124,0,0,0,.318-.509,2.52,2.52,0,0,0,.082-.693V63.779a.532.532,0,0,0-.119-.374.412.412,0,0,0-.315-.131Z" data-name="Path 2853" transform="translate(-39.737 -63.274)"/><path id="Path_2854" fill="#fff" d="M63.265,66.071a3.036,3.036,0,0,0-.308-.419,1.548,1.548,0,0,0-.211-.2,1.185,1.185,0,0,0,.511-.3.939.939,0,0,0,.239-.669,1.067,1.067,0,0,0-.07-.384.933.933,0,0,0-.206-.321.948.948,0,0,0-.31-.211,1.084,1.084,0,0,0-.324-.088,3.537,3.537,0,0,0-.409-.02H61.051a.446.446,0,0,0-.509.509V66.6a.558.558,0,0,0,.111.37.4.4,0,0,0,.321.137.409.409,0,0,0,.311-.13A.538.538,0,0,0,61.4,66.6V65.586h.158a.741.741,0,0,1,.274.043.578.578,0,0,1,.207.16,2.5,2.5,0,0,1,.258.374l.278.462c.067.112.119.194.158.251a.608.608,0,0,0,.158.161.42.42,0,0,0,.244.07.454.454,0,0,0,.211-.048.388.388,0,0,0,.15-.134.329.329,0,0,0,.057-.18.793.793,0,0,0-.08-.272A3.036,3.036,0,0,0,63.265,66.071Zm-.71-1.312a.412.412,0,0,1-.217.12,1.662,1.662,0,0,1-.4.04H61.4v-.77h.554a1.31,1.31,0,0,1,.445.045.35.35,0,0,1,.163.131.357.357,0,0,1,.058.2.34.34,0,0,1-.069.23Z" data-name="Path 2854" transform="translate(-48.439 -63.401)"/><path id="Path_2855" fill="#fff" d="M74.772,65.007a1.688,1.688,0,0,0-.42-.209,5.281,5.281,0,0,0-.531-.151c-.151-.038-.261-.068-.327-.088a.956.956,0,0,1-.182-.077.389.389,0,0,1-.127-.1.2.2,0,0,1-.039-.126.261.261,0,0,1,.129-.215.648.648,0,0,1,.383-.1.581.581,0,0,1,.366.089.813.813,0,0,1,.2.277.871.871,0,0,0,.15.216.332.332,0,0,0,.239.083.361.361,0,0,0,.281-.128.411.411,0,0,0,.109-.279.71.71,0,0,0-.079-.315.952.952,0,0,0-.242-.3,1.241,1.241,0,0,0-.409-.223,1.785,1.785,0,0,0-.572-.083,1.918,1.918,0,0,0-.717.124,1.056,1.056,0,0,0-.483.367.938.938,0,0,0-.169.55.9.9,0,0,0,.162.545,1.086,1.086,0,0,0,.427.342,3.313,3.313,0,0,0,.634.207c.18.041.325.081.431.117a.591.591,0,0,1,.235.141.294.294,0,0,1,.08.217.348.348,0,0,1-.158.29.737.737,0,0,1-.449.127.71.71,0,0,1-.323-.062.49.49,0,0,1-.183-.154,1.292,1.292,0,0,1-.132-.255.638.638,0,0,0-.151-.239.347.347,0,0,0-.243-.092.387.387,0,0,0-.395.39.917.917,0,0,0,.159.492,1.2,1.2,0,0,0,.408.395,1.731,1.731,0,0,0,.877.2,1.844,1.844,0,0,0,.765-.147,1.149,1.149,0,0,0,.5-.418,1.091,1.091,0,0,0,.173-.6,1.031,1.031,0,0,0-.1-.476.9.9,0,0,0-.282-.325Z" data-name="Path 2855" transform="translate(-56.489 -63.273)"/></g><path id="Path_2856" fill="#fff" d="M26.5,27.567a7.253,7.253,0,0,1-1.111.949,12.949,12.949,0,0,0-1.272,1.076c-.587.541-1.255,1.2-1.985,1.955a2.921,2.921,0,0,0-.5.794,2.106,2.106,0,0,0-.23.823,1.181,1.181,0,0,0,.372.865,1.4,1.4,0,0,0,1.025.367h6.073a1.16,1.16,0,0,0,.874-.307,1.041,1.041,0,0,0,.292-.743.946.946,0,0,0-.371-.784,1.659,1.659,0,0,0-1.034-.282H24.48a4.311,4.311,0,0,1,.31-.4,13.26,13.26,0,0,1,1.692-1.564c.826-.675,1.422-1.177,1.773-1.492A5.89,5.89,0,0,0,29.307,27.5a3.619,3.619,0,0,0,.52-1.9,3.493,3.493,0,0,0-.947-2.385,3.347,3.347,0,0,0-1.042-.745,5.4,5.4,0,0,0-2.188-.4,5.041,5.041,0,0,0-1.859.316,3.881,3.881,0,0,0-1.316.831,3.5,3.5,0,0,0-.782,1.15,3.2,3.2,0,0,0-.262,1.22,1.09,1.09,0,0,0,.3.8,1.014,1.014,0,0,0,.745.3.954.954,0,0,0,.779-.328,2.921,2.921,0,0,0,.452-.876,3.783,3.783,0,0,1,.268-.658A1.835,1.835,0,0,1,25.6,23.9a1.9,1.9,0,0,1,.9.221,1.672,1.672,0,0,1,.652.617,1.716,1.716,0,0,1,.239.9,2.281,2.281,0,0,1-.227.959,3.752,3.752,0,0,1-.67.968Z" data-name="Path 2856" transform="translate(-21.552 -20.857)"/><path id="Path_2857" fill="#fcfcfc" d="M58.74,32.387a1.456,1.456,0,0,0,.3-1v-1.45h.419a1.737,1.737,0,0,0,.989-.234.873.873,0,0,0,.35-.767.823.823,0,0,0-.433-.836,2.6,2.6,0,0,0-1.054-.181h-.27v-6.3c0-1.009-.45-1.52-1.339-1.52a1.02,1.02,0,0,0-.722.283,6.756,6.756,0,0,0-.715.849l-4.373,5.849-.305.4c-.084.112-.166.229-.242.347a1.733,1.733,0,0,0-.182.356,1.021,1.021,0,0,0-.063.346,1.323,1.323,0,0,0,.42,1.028,1.789,1.789,0,0,0,1.233.377h4.057v1.45a1.448,1.448,0,0,0,.306.993,1.135,1.135,0,0,0,1.623.009Zm-2.2-4.469H54.048a.269.269,0,0,1-.216-.428l2.494-3.37a.268.268,0,0,1,.484.16v3.37A.269.269,0,0,1,56.542,27.918Z" data-name="Path 2857" transform="translate(-41.939 -19.511)"/><path id="XMLID_29_" fill="#fff" d="M52.866,27.888c1.521.308,5.7,3.239,5.767,7.132.079,4.695-12.959,21-19.475,21.059a9.126,9.126,0,0,1-1.925-.18c-4.5-.912-6.562-4.393-6.415-5.922S33.509,45.99,35.2,45.9A4.427,4.427,0,0,1,38.294,47.7c.676.783,1.5,1.637,3.7,1.023,2.284-.64,8.988-7.971,9.388-10.135.274-1.477-1.09-2.266-2.174-3.535a4.266,4.266,0,0,1-.938-3.378c.209-1.132,2.842-4.147,4.6-3.791Z" transform="translate(-28.012 -24.84)"/><path id="Path_2858" fill="#000507" d="M37.233,56.045a9.049,9.049,0,0,0,1.3.164c6.613-.568,19.233-16.423,19.156-21.043-.063-3.769-3.984-6.636-5.614-7.095a6.864,6.864,0,0,0-3.814,3.753A4.267,4.267,0,0,0,49.2,35.2c1.084,1.27,2.449,2.058,2.174,3.535-.4,2.164-7.1,9.494-9.388,10.135-2.193.614-3.019-.241-3.7-1.023A4.427,4.427,0,0,0,35.2,46.044c-1.691.091-4.235,2.549-4.383,4.079s1.917,5.01,6.416,5.922Z" data-name="Path 2858" transform="translate(-28.012 -24.986)"/><path id="Path_2859" fill="#fff" d="M27.661,10.2a.313.313,0,0,0-.42-.142c-.434.215-.865.454-1.281.712a.314.314,0,0,0,.331.533c.4-.247.811-.477,1.228-.683A.315.315,0,0,0,27.661,10.2Z" data-name="Path 2859" transform="translate(-24.582 -12.599)"/><path id="Path_2860" fill="#fafafa" d="M9.473,14.8A15.127,15.127,0,0,0,7.066,36.641L5.48,36.385a.314.314,0,0,0-.1.619l2.467.4a.3.3,0,0,0,.05,0,.313.313,0,0,0,.313-.306l.057-2.421a.314.314,0,0,0-.306-.321.326.326,0,0,0-.321.306L7.6,36.3A14.5,14.5,0,0,1,9.852,15.3a.314.314,0,1,0-.379-.5Z" data-name="Path 2860" transform="translate(-9.251 -15.831)"/><path id="Path_2861" fill="#fff" d="M52.243,12a2.991,2.991,0,0,0-2.21.65c-.071.048-.142.1-.212.151a15.136,15.136,0,0,0-18.44-6.686.314.314,0,0,0,.22.587,14.512,14.512,0,0,1,17.726,6.5,6.529,6.529,0,0,0-2.056,2.843,4.568,4.568,0,0,0,1.008,3.639c.276.323.564.61.842.888.8.8,1.439,1.436,1.263,2.386-.387,2.093-7.068,9.3-9.165,9.889-2.071.581-2.763-.22-3.373-.926a4.562,4.562,0,0,0-3.306-1.914H34.5c-1.8.1-4.511,2.624-4.678,4.362-.161,1.68,1.986,5.311,6.665,6.259a9.417,9.417,0,0,0,1.878.187h.113c3.425-.033,7.962-4.173,10.363-6.637,4.572-4.695,9.474-11.665,9.423-14.741-.068-4.051-4.3-7.086-6.018-7.434ZM48.389,33.739c-3.968,4.075-7.584,6.425-9.92,6.447a9.034,9.034,0,0,1-1.859-.174c-4.253-.862-6.3-4.141-6.165-5.585.136-1.41,2.619-3.716,4.075-3.795h.031a3.994,3.994,0,0,1,2.82,1.7c.622.72,1.563,1.808,4.017,1.12C43.739,32.79,50.566,25.418,51,23.07c.236-1.275-.576-2.086-1.436-2.945-.27-.269-.549-.548-.808-.851a3.917,3.917,0,0,1-.868-3.118,6.834,6.834,0,0,1,2.5-2.986,2.451,2.451,0,0,1,1.734-.554h0c1.393.282,5.452,3.069,5.515,6.83.043,2.559-4.19,9.1-9.245,14.293Z" data-name="Path 2861" transform="translate(-27.327 -9.26)"/></g></svg>