<svg xmlns="http://www.w3.org/2000/svg" width="30.008" height="30.084" viewBox="0 0 30.008 30.084">
  <g id="email" transform="translate(-0.082 0.001)">
    <path id="Path_2865" data-name="Path 2865" d="M31.849,21.9l-2.237-1.86a2.623,2.623,0,0,0-3.229,0L24.146,21.9l-1.058.879-1.532,1.274L13.91,30.41l10.236,8.511,2.237,1.86a2.623,2.623,0,0,0,3.228,0l2.237-1.86L42.084,30.41c-.076-.072-10.235-8.513-10.235-8.513Zm0,0" transform="translate(-12.91 -18.189)" fill="#00818a"/>
    <path id="Path_2866" data-name="Path 2866" d="M39.415,27.5c-.077-.073-8.547-7.111-10.244-8.521l-2.237-1.86a2.832,2.832,0,0,0-3.484,0l-4.827,4.013-7.645,6.36a.2.2,0,0,0,0,.306L23.45,38.168a2.831,2.831,0,0,0,3.483,0L39.406,27.8a.2.2,0,0,0,.009-.3ZM26.678,37.862a2.417,2.417,0,0,1-2.974,0L11.416,27.645l7.461-6.207L23.7,17.425a2.417,2.417,0,0,1,2.974,0l2.237,1.86c3.178,2.641,8.972,7.456,10.052,8.359Zm0,0" transform="translate(-10.105 -15.423)" fill="#fafafa"/>
    <path id="Path_2867" data-name="Path 2867" d="M40.585,22.355a2.057,2.057,0,0,1-1.729,1.778C40.229,24.2,40.571,26,40.571,26c.029-1.285,1.769-1.885,1.769-1.885C41.037,24.036,40.585,22.355,40.585,22.355Zm0,0" transform="translate(-36.199 -20.872)" fill="#fff"/>
    <path id="Path_2868" data-name="Path 2868" d="M39.551,21.115c-1.143-.068-1.571-1.6-1.575-1.612a.2.2,0,0,0-.391.035,1.843,1.843,0,0,1-1.561,1.6.2.2,0,0,0,.02.4c1.2.057,1.527,1.689,1.53,1.705a.2.2,0,0,0,.2.162h.017a.2.2,0,0,0,.183-.194c.026-1.13,1.619-1.7,1.635-1.7a.2.2,0,0,0-.053-.387Zm-1.8,1.374a2.322,2.322,0,0,0-1.007-1.179,2.137,2.137,0,0,0,1.089-1.1,2.432,2.432,0,0,0,1.106,1.158,2.833,2.833,0,0,0-1.188,1.119Zm0,0" transform="translate(-33.399 -18.072)" fill="#3a312a"/>
    <path id="Path_2869" data-name="Path 2869" d="M4.305,56.316a1.456,1.456,0,0,1-1.223,1.257c.972.046,1.214,1.32,1.214,1.32.021-.909,1.251-1.334,1.251-1.334-.922-.055-1.242-1.244-1.242-1.244Zm0,0" transform="translate(-2.801 -52.579)" fill="#fff"/>
    <path id="Path_2870" data-name="Path 2870" d="M2.758,54.557c-.766-.046-1.059-1.087-1.061-1.1a.2.2,0,0,0-.391.036A1.247,1.247,0,0,1,.251,54.572a.2.2,0,0,0,.02.4c.8.038,1.025,1.147,1.027,1.158a.2.2,0,0,0,.2.162h.017a.2.2,0,0,0,.183-.194c.017-.758,1.106-1.146,1.117-1.15a.2.2,0,0,0-.053-.387Zm-1.272.9a1.7,1.7,0,0,0-.59-.7,1.59,1.59,0,0,0,.647-.653A1.777,1.777,0,0,0,2.2,54.8a2.081,2.081,0,0,0-.712.66Zm0,0" transform="translate(0 -49.774)" fill="#3a312a"/>
    <path id="Path_2871" data-name="Path 2871" d="M4.305,3A1.455,1.455,0,0,1,3.082,4.257C4.054,4.3,4.3,5.578,4.3,5.578c.021-.909,1.251-1.334,1.251-1.334C4.625,4.189,4.305,3,4.305,3Zm0,0" transform="translate(-2.801 -2.802)" fill="#fff"/>
    <path id="Path_2872" data-name="Path 2872" d="M2.758,1.244C1.992,1.2,1.7.157,1.7.146a.2.2,0,0,0-.391.036A1.248,1.248,0,0,1,.251,1.259a.2.2,0,0,0,.02.4C1.073,1.692,1.3,2.8,1.3,2.813a.2.2,0,0,0,.2.162h.017a.2.2,0,0,0,.183-.194c.017-.758,1.106-1.146,1.117-1.15a.2.2,0,0,0-.053-.387Zm-1.272.9a1.7,1.7,0,0,0-.59-.7A1.588,1.588,0,0,0,1.541.792a1.777,1.777,0,0,0,.656.694,2.078,2.078,0,0,0-.712.66Zm0,0" transform="translate(0 0)" fill="#3a312a"/>
    <path id="Path_2873" data-name="Path 2873" d="M76.813,87.586H58.545a2.128,2.128,0,0,0-2.128,2.128v19.814a2.128,2.128,0,0,0,2.128,2.128H76.813a2.128,2.128,0,0,0,2.128-2.128V89.714a2.128,2.128,0,0,0-2.128-2.128Zm0,0" transform="translate(-52.595 -81.772)" fill="#fafafa"/>
    <path id="Path_2874" data-name="Path 2874" d="M74.008,84.586H69.565a.2.2,0,1,0,0,.4h4.443a1.931,1.931,0,0,1,1.929,1.929v19.814a1.931,1.931,0,0,1-1.929,1.929H55.74a1.931,1.931,0,0,1-1.929-1.929V86.913a1.931,1.931,0,0,1,1.929-1.929H67.606a.2.2,0,1,0,0-.4H55.74a2.33,2.33,0,0,0-2.327,2.327v19.814a2.33,2.33,0,0,0,2.327,2.327H74.008a2.33,2.33,0,0,0,2.327-2.327V86.913a2.33,2.33,0,0,0-2.327-2.327Zm0,0" transform="translate(-49.791 -78.971)" fill="#3a312a"/>
    <path id="Path_2875" data-name="Path 2875" d="M160.5,108.73a5.342,5.342,0,0,0-5.332,5.609A4.348,4.348,0,0,0,159.6,118.9a5.465,5.465,0,0,0,2.318-.446.333.333,0,0,0-.269-.609,4.827,4.827,0,0,1-1.888.355A3.649,3.649,0,0,1,156,114.252c0-2.965,2-4.85,4.382-4.85a3.347,3.347,0,0,1,3.535,3.637c0,1.694-.832,2.688-1.577,2.673-.482-.015-.657-.526-.438-1.636l.5-2.644a3.852,3.852,0,0,0-1.563-.307,3.449,3.449,0,0,0-3.462,3.462,1.657,1.657,0,0,0,1.578,1.841,2.3,2.3,0,0,0,2.059-1.285h.058a1.081,1.081,0,0,0,1.081,1.285c1.373,0,2.6-1.285,2.6-3.476a4.057,4.057,0,0,0-4.251-4.222Zm.584,4.923c-.161.906-.935,1.987-1.782,1.987-.643,0-.964-.468-.964-1.11A2.376,2.376,0,0,1,161.394,112Zm0,0" transform="translate(-144.794 -101.513)" fill="#fafafa"/>
    <path id="Path_2876" data-name="Path 2876" d="M158.651,109.008a2.739,2.739,0,0,0-.788-.11,2.691,2.691,0,0,0-2.522,2.828,1.152,1.152,0,0,0,1.163,1.309c.941,0,1.8-1.133,1.978-2.149l.307-1.651A.2.2,0,0,0,158.651,109.008Zm-.56,1.807c-.15.843-.875,1.822-1.586,1.822a.792.792,0,0,1-.765-.911,2.323,2.323,0,0,1,2.124-2.43,2.423,2.423,0,0,1,.5.05Zm1.706-2.149a.2.2,0,0,0-.112-.218,4.084,4.084,0,0,0-1.646-.325,3.665,3.665,0,0,0-3.661,3.661,1.853,1.853,0,0,0,1.777,2.04,2.362,2.362,0,0,0,1.959-.982,1.277,1.277,0,0,0,.315.607,1.257,1.257,0,0,0,.925.375c1.391,0,2.8-1.263,2.8-3.676a4.244,4.244,0,0,0-4.45-4.421,5.55,5.55,0,0,0-5.531,5.808,4.538,4.538,0,0,0,4.625,4.756,5.675,5.675,0,0,0,2.4-.464.535.535,0,0,0,.282-.673.524.524,0,0,0-.288-.3.541.541,0,0,0-.424,0,4.633,4.633,0,0,1-1.809.339,3.459,3.459,0,0,1-3.555-3.745c0-2.695,1.759-4.65,4.183-4.65a3.143,3.143,0,0,1,3.336,3.438,3.048,3.048,0,0,1-.718,2.166.938.938,0,0,1-.654.309.264.264,0,0,1-.218-.1c-.086-.108-.2-.421-.031-1.3Zm-.777,4.195a.666.666,0,0,0,.519.247,1.322,1.322,0,0,0,.943-.423,3.437,3.437,0,0,0,.838-2.45,3.548,3.548,0,0,0-3.734-3.836c-2.655,0-4.581,2.123-4.581,5.049a3.835,3.835,0,0,0,3.953,4.143,5.034,5.034,0,0,0,1.966-.371.139.139,0,0,1,.11,0,.131.131,0,0,1,.071.075.136.136,0,0,1-.072.171,5.222,5.222,0,0,1-2.236.429,4.153,4.153,0,0,1-4.227-4.358,5.161,5.161,0,0,1,5.133-5.41,3.862,3.862,0,0,1,4.051,4.023c0,2.152-1.208,3.277-2.4,3.277a.863.863,0,0,1-.636-.252,1.089,1.089,0,0,1-.246-.825.2.2,0,0,0-.2-.209h-.058a.2.2,0,0,0-.171.1,2.11,2.11,0,0,1-1.888,1.188,1.46,1.46,0,0,1-1.379-1.641,3.266,3.266,0,0,1,3.263-3.263,3.832,3.832,0,0,1,1.338.228l-.467,2.484a2.071,2.071,0,0,0,.11,1.627Zm0,0" transform="translate(-141.994 -98.709)" fill="#3a312a"/>
    <path id="Path_2877" data-name="Path 2877" d="M3.826,184.109a2.246,2.246,0,0,0-.717,1.649v13.723a2.251,2.251,0,0,0,.717,1.65l10.235-8.512Zm0,0" transform="translate(-2.826 -171.888)"/>
    <path id="Path_2878" data-name="Path 2878" d="M11.388,189.665,1.153,181.155a.2.2,0,0,0-.263.007,2.46,2.46,0,0,0-.78,1.795v8.7a.2.2,0,0,0,.4,0v-8.7a2.061,2.061,0,0,1,.531-1.379l9.911,8.241L1.038,198.06a2.035,2.035,0,0,1-.531-1.38v-2.988a.2.2,0,1,0-.4,0v2.988a2.465,2.465,0,0,0,.78,1.8.2.2,0,0,0,.263.008l10.235-8.512a.2.2,0,0,0,0-.306Zm0,0" transform="translate(-0.025 -169.086)" fill="#fafafa"/>
    <path id="Path_2879" data-name="Path 2879" d="M294.364,184.109l-10.235,8.511,10.235,8.512a2.251,2.251,0,0,0,.717-1.65V185.758A2.246,2.246,0,0,0,294.364,184.109Zm0,0" transform="translate(-265.19 -171.887)" fill="#0d0102"/>
    <path id="Path_2880" data-name="Path 2880" d="M291.7,181.162a.2.2,0,0,0-.263-.007L281.2,189.665a.2.2,0,0,0,0,.306l10.235,8.512a.2.2,0,0,0,.263-.008,2.466,2.466,0,0,0,.78-1.8V182.956a2.46,2.46,0,0,0-.781-1.795Zm.382,15.518a2.035,2.035,0,0,1-.531,1.38l-9.91-8.242,9.91-8.241a2.061,2.061,0,0,1,.531,1.379Zm0,0" transform="translate(-262.39 -169.086)" fill="#fafafa"/>
    <path id="Path_2881" data-name="Path 2881" d="M31.852,278.342l-2.237-1.86a2.623,2.623,0,0,0-3.228,0l-2.237,1.86-10.235,8.511a2.245,2.245,0,0,0,1.544.611H40.542a2.245,2.245,0,0,0,1.544-.611Zm0,0" transform="translate(-12.913 -257.61)"/>
    <path id="Path_2882" data-name="Path 2882" d="M39.416,283.935,26.944,273.564a2.831,2.831,0,0,0-3.483,0L10.989,283.935a.2.2,0,0,0-.009.3,2.44,2.44,0,0,0,1.681.665H37.744a2.441,2.441,0,0,0,1.681-.665.2.2,0,0,0-.009-.3Zm-1.672.565H12.66a2.046,2.046,0,0,1-1.235-.411l12.29-10.219a2.418,2.418,0,0,1,2.974,0l12.29,10.219a2.045,2.045,0,0,1-1.234.411Zm0,0" transform="translate(-10.115 -254.844)" fill="#fafafa"/>
    <path id="Path_2883" data-name="Path 2883" d="M412.859,166.781v2.3l1.379-1.147C413.993,167.725,413.5,167.318,412.859,166.781Zm0,0" transform="translate(-385.375 -155.71)" fill="#247b1c"/>
    <g id="Group_9818" data-name="Group 9818" transform="translate(26.171 12.491)">
      <path id="Path_2884" data-name="Path 2884" d="M414.769,188.172l-1.66,1.379v13.723l.054.045,1.605,1.336a2.036,2.036,0,0,0,.531-1.381V189.551A2.062,2.062,0,0,0,414.769,188.172Zm0,0" transform="translate(-411.779 -188.172)" fill="#707070"/>
      <path id="Path_2885" data-name="Path 2885" d="M394.35,422.832a2.251,2.251,0,0,1-.666,1.175,2.3,2.3,0,0,1-.613.412h1.458a2.04,2.04,0,0,0,1.235-.412Zm0,0" transform="translate(-393.071 -407.254)" fill="#707070"/>
    </g>
  </g>
</svg>
