<svg xmlns="http://www.w3.org/2000/svg" width="46.5" height="46.426" viewBox="0 0 46.5 46.426">
  <g id="Group_9808" data-name="Group 9808" transform="translate(-273 -354)">
    <g id="buildings" transform="translate(273 354)">
      <path id="Path_2666" data-name="Path 2666" d="M41,51h1.5v6H41Z" transform="translate(-11 -13.574)" fill="#00818a"/>
      <path id="Path_2667" data-name="Path 2667" d="M45,51h1.5v6H45Z" transform="translate(-12 -13.574)" fill="#00818a"/>
      <path id="Path_2668" data-name="Path 2668" d="M41.5,27.2V11.483H40V3.86l-1.5.249V2.5H37V4.359l-1.5.249V1H34V4.859l-1.5.249V2.5H31v2.86l-1.5.249v5.877H28v7.488H22V8.488H19V4H17.5V1H10V4H8.5V8.488h-3V22.479a5.249,5.249,0,0,0-2.94,3.98H1V47.426H47.5V26.345ZM31,6.876l7.5-1.248v5.856H31Zm-1.5,6.105H40V27.415l-4.5.642v3.895l-2.25-3-2.25,3V18.971H29.5Zm0,8.986H19v-1.5H29.5Zm0,14.976H37v8.986H29.5Zm.75-1.5,3-3.993,3,3.993ZM11.5,2.5H16V4H11.5Zm-1.5,3h7.5v3H10ZM7,9.986H20.5v8.986h-3v3.508a5.223,5.223,0,0,0-2.25-.513H7.75a5.278,5.278,0,0,0-.75.06Zm.75,13.478h7.5a3.756,3.756,0,0,1,3.674,3H4.076A3.756,3.756,0,0,1,7.75,23.464ZM20.5,27.957v1.5H2.5v-1.5Zm-3,13.478h-3v-3h3Zm-4.5,0H10v-3h3Zm0,1.5v3H10v-3Zm1.5,0h3v3h-3Zm3-5.99h-3v-3h3Zm-4.5,0H10v-3h3Zm-4.5,0h-3v-3h3Zm-3,1.5h3v3h-3Zm0,4.493h3v3h-3Zm13.5,3V32.45H4V45.928H2.5V30.952h18V45.928Zm1.44-19.469A5.219,5.219,0,0,0,19,23.547v-.083H29.5V33.947l-1.5,2v9.984H22V26.459ZM46,45.928H38.5V35.944l-1.5-2V29.355l9-1.283Z" transform="translate(-1 -1)" fill="#00818a"/>
      <path id="Path_2669" data-name="Path 2669" d="M31,33h1.5v1.5H31Z" transform="translate(-8.5 -9.04)" fill="#00818a"/>
      <path id="Path_2670" data-name="Path 2670" d="M31,57h1.5v1.5H31Z" transform="translate(-8.5 -15.074)" fill="#00818a"/>
      <path id="Path_2671" data-name="Path 2671" d="M31,37h1.5v1.5H31Z" transform="translate(-8.5 -10.044)" fill="#00818a"/>
      <path id="Path_2672" data-name="Path 2672" d="M31,53h1.5v1.5H31Z" transform="translate(-8.5 -14.074)" fill="#00818a"/>
      <path id="Path_2673" data-name="Path 2673" d="M31,45h1.5v1.5H31Z" transform="translate(-8.5 -12.054)" fill="#00818a"/>
      <path id="Path_2674" data-name="Path 2674" d="M31,41h1.5v1.5H31Z" transform="translate(-8.5 -11.049)" fill="#00818a"/>
      <path id="Path_2675" data-name="Path 2675" d="M31,49h1.5v1.5H31Z" transform="translate(-8.5 -13.059)" fill="#00818a"/>
      <path id="Path_2676" data-name="Path 2676" d="M35,41h1.5v1.5H35Z" transform="translate(-9.5 -11.049)" fill="#00818a"/>
      <path id="Path_2677" data-name="Path 2677" d="M35,37h1.5v1.5H35Z" transform="translate(-9.5 -10.044)" fill="#00818a"/>
      <path id="Path_2678" data-name="Path 2678" d="M35,33h1.5v1.5H35Z" transform="translate(-9.5 -9.04)" fill="#00818a"/>
      <path id="Path_2679" data-name="Path 2679" d="M57,57h1.5v1.5H57Z" transform="translate(-15 -15.074)" fill="#00818a"/>
      <path id="Path_2680" data-name="Path 2680" d="M57,49h1.5v1.5H57Z" transform="translate(-15 -13.059)" fill="#00818a"/>
      <path id="Path_2681" data-name="Path 2681" d="M57,53h1.5v1.5H57Z" transform="translate(-15 -14.074)" fill="#00818a"/>
      <path id="Path_2682" data-name="Path 2682" d="M57,45h1.5v1.5H57Z" transform="translate(-15 -12.054)" fill="#00818a"/>
      <path id="Path_2683" data-name="Path 2683" d="M57,41h1.5v1.5H57Z" transform="translate(-15 -11.049)" fill="#00818a"/>
      <path id="Path_2684" data-name="Path 2684" d="M53,53h1.5v1.5H53Z" transform="translate(-14 -14.074)" fill="#00818a"/>
      <path id="Path_2685" data-name="Path 2685" d="M53,41h1.5v1.5H53Z" transform="translate(-14 -11.049)" fill="#00818a"/>
      <path id="Path_2686" data-name="Path 2686" d="M53,49h1.5v1.5H53Z" transform="translate(-14 -13.059)" fill="#00818a"/>
      <path id="Path_2687" data-name="Path 2687" d="M53,57h1.5v1.5H53Z" transform="translate(-14 -15.074)" fill="#00818a"/>
      <path id="Path_2688" data-name="Path 2688" d="M53,45h1.5v1.5H53Z" transform="translate(-14 -12.054)" fill="#00818a"/>
      <path id="Path_2689" data-name="Path 2689" d="M23,15h1.5v1.5H23Z" transform="translate(-6.5 -4.517)" fill="#00818a"/>
      <path id="Path_2690" data-name="Path 2690" d="M19,15h1.5v1.5H19Z" transform="translate(-5.5 -4.517)" fill="#00818a"/>
      <path id="Path_2691" data-name="Path 2691" d="M11,15h1.5v1.5H11Z" transform="translate(-3.5 -4.517)" fill="#00818a"/>
      <path id="Path_2692" data-name="Path 2692" d="M15,15h1.5v1.5H15Z" transform="translate(-4.5 -4.517)" fill="#00818a"/>
      <path id="Path_2693" data-name="Path 2693" d="M15,19h1.5v1.5H15Z" transform="translate(-4.5 -5.522)" fill="#00818a"/>
      <path id="Path_2694" data-name="Path 2694" d="M23,19h1.5v1.5H23Z" transform="translate(-6.5 -5.522)" fill="#00818a"/>
      <path id="Path_2695" data-name="Path 2695" d="M11,19h1.5v1.5H11Z" transform="translate(-3.5 -5.522)" fill="#00818a"/>
      <path id="Path_2696" data-name="Path 2696" d="M19,19h1.5v1.5H19Z" transform="translate(-5.5 -5.522)" fill="#00818a"/>
      <path id="Path_2697" data-name="Path 2697" d="M11,23h1.5v1.5H11Z" transform="translate(-3.5 -6.527)" fill="#00818a"/>
      <path id="Path_2698" data-name="Path 2698" d="M15,23h1.5v1.5H15Z" transform="translate(-4.5 -6.527)" fill="#00818a"/>
      <path id="Path_2699" data-name="Path 2699" d="M19,23h1.5v1.5H19Z" transform="translate(-5.5 -6.527)" fill="#00818a"/>
      <path id="Path_2700" data-name="Path 2700" d="M49,19h1.5v1.5H49Z" transform="translate(-13 -5.522)" fill="#00818a"/>
      <path id="Path_2701" data-name="Path 2701" d="M45,19h1.5v1.5H45Z" transform="translate(-12 -5.522)" fill="#00818a"/>
      <path id="Path_2702" data-name="Path 2702" d="M41,19h1.5v1.5H41Z" transform="translate(-11 -5.522)" fill="#00818a"/>
      <path id="Path_2703" data-name="Path 2703" d="M49,23h1.5v1.5H49Z" transform="translate(-13 -6.527)" fill="#00818a"/>
      <path id="Path_2704" data-name="Path 2704" d="M41,23h1.5v1.5H41Z" transform="translate(-11 -6.527)" fill="#00818a"/>
      <path id="Path_2705" data-name="Path 2705" d="M45,23h1.5v1.5H45Z" transform="translate(-12 -6.527)" fill="#00818a"/>
      <path id="Path_2706" data-name="Path 2706" d="M45,35h1.5v1.5H45Z" transform="translate(-12 -9.542)" fill="#00818a"/>
      <path id="Path_2707" data-name="Path 2707" d="M45,31h1.5v1.5H45Z" transform="translate(-12 -8.537)" fill="#00818a"/>
      <path id="Path_2708" data-name="Path 2708" d="M45,27h1.5v1.5H45Z" transform="translate(-12 -7.532)" fill="#00818a"/>
      <path id="Path_2709" data-name="Path 2709" d="M49,31h1.5v1.5H49Z" transform="translate(-13 -8.537)" fill="#00818a"/>
      <path id="Path_2710" data-name="Path 2710" d="M49,27h1.5v1.5H49Z" transform="translate(-13 -7.532)" fill="#00818a"/>
    </g>
    <g id="search" transform="matrix(0.998, 0.07, -0.07, 0.998, 307.425, 371.516)">
      <path id="Path_2661" data-name="Path 2661" d="M10.486,9.22,8.211,6.945A4.492,4.492,0,1,0,6.945,8.211L9.22,10.486A.9.9,0,0,0,10.486,9.22ZM4.479,7.166A2.687,2.687,0,1,1,7.166,4.479,2.69,2.69,0,0,1,4.479,7.166Z" transform="translate(0 0)" fill="#06cedc"/>
    </g>
  </g>
</svg>
