<svg xmlns="http://www.w3.org/2000/svg" width="42.499" height="42.5" viewBox="0 0 42.499 42.5"><g id="nearby" transform="translate(-0.005)"><path id="Path_2653" fill="#00818a" d="M42.5,29.882c0-5.6-5.623-9.325-10.9-11.049a15.682,15.682,0,0,0,1.766-6.718,12.115,12.115,0,1,0-24.23,0,15.681,15.681,0,0,0,1.766,6.718C-1.584,22.913-3.74,33.21,6.513,39.02c7.309,4.142,18.363,4.532,26.362,1.461a3.982,3.982,0,0,0,6.682-4.122A9.153,9.153,0,0,0,42.5,29.882ZM21.255,2.656a9.47,9.47,0,0,1,9.459,9.459c0,5.514-5.5,12.116-9.459,15.947C17.3,24.234,11.8,17.633,11.8,12.115a9.47,9.47,0,0,1,9.459-9.459Zm-4.664,30.2a3.987,3.987,0,0,0-6.541-2.7.61.61,0,0,1-.084-.281c0-.7,1.926-2.237,6.522-2.961a47.914,47.914,0,0,0,3.888,3.956,1.328,1.328,0,0,0,1.757,0,47.96,47.96,0,0,0,3.888-3.956c4.6.723,6.522,2.258,6.522,2.961,0,.481-.884,1.325-2.826,2.041-3.761,1.386-9.094,1.556-13.127.936Zm-3.969-.985A1.328,1.328,0,1,1,11.294,33.2,1.33,1.33,0,0,1,12.622,31.874Zm-4.8,4.835c-8.833-5.005-5.658-12.442,4.387-15.5a37.783,37.783,0,0,0,2.343,3.375c-3.016.657-7.243,2.216-7.243,5.3A3.656,3.656,0,0,0,8.68,32.623a3.983,3.983,0,0,0,7.236,2.818c8.228,1.346,19.284-.622,19.284-5.559,0-3.084-4.225-4.643-7.243-5.3A37.783,37.783,0,0,0,30.3,21.207c5.834,1.777,9.548,5.121,9.548,8.675a6.58,6.58,0,0,1-2.056,4.483,3.987,3.987,0,0,0-5.908,3.649c-7.186,2.746-17.4,2.468-24.061-1.305Zm28.041,2.47a1.328,1.328,0,1,1,1.328-1.328A1.33,1.33,0,0,1,35.864,39.179Z" data-name="Path 2653" transform="translate(0)"/><path id="Path_2654" fill="#00818a" d="M182.647,77.281a6.64,6.64,0,1,0-6.64-6.64A6.648,6.648,0,0,0,182.647,77.281Zm0-10.625a3.984,3.984,0,1,1-3.984,3.984A3.989,3.989,0,0,1,182.647,66.656Z" data-name="Path 2654" transform="translate(-161.393 -58.688)"/></g></svg>