<svg xmlns="http://www.w3.org/2000/svg" width="37.573" height="32.953" viewBox="0 0 37.573 32.953">
  <g id="semantic-web" transform="translate(-6 -21)">
    <path id="Path_2886" data-name="Path 2886" d="M24.173,55.337A16.169,16.169,0,1,1,40.346,39.169,16.189,16.189,0,0,1,24.173,55.337Z" transform="translate(-1.692 -1.692)" fill="#000710"/>
    <g id="Group_9820" data-name="Group 9820" transform="translate(6.207 21.388)">
      <path id="Path_2887" data-name="Path 2887" d="M24.612,55.7A16.089,16.089,0,1,1,40.7,39.608,16.109,16.109,0,0,1,24.612,55.7Zm0-31.253A15.165,15.165,0,1,0,39.781,39.608,15.184,15.184,0,0,0,24.612,24.443Z" transform="translate(-8.338 -23.519)" fill="#e0ebfc"/>
      <path id="Path_2888" data-name="Path 2888" d="M49.415,33.748a15.978,15.978,0,0,1-11.445-4.79.462.462,0,0,1,0-.649,16.069,16.069,0,0,1,22.891,0,.462.462,0,0,1,0,.649A15.978,15.978,0,0,1,49.415,33.748ZM38.957,28.634a15.143,15.143,0,0,0,20.916,0,15.143,15.143,0,0,0-20.916,0Z" transform="translate(-33.141 -23.519)" fill="#fafafa"/>
      <path id="Path_2889" data-name="Path 2889" d="M24.612,55.7A16.089,16.089,0,1,1,40.7,39.608,16.109,16.109,0,0,1,24.612,55.7Zm0-31.253A15.165,15.165,0,1,0,39.781,39.608,15.184,15.184,0,0,0,24.612,24.443Z" transform="translate(-8.338 -23.519)" fill="#fafafa"/>
      <path id="Path_2890" data-name="Path 2890" d="M49.415,176.279a15.978,15.978,0,0,1-11.445-4.79.462.462,0,0,1,0-.649,16.069,16.069,0,0,1,22.891,0,.462.462,0,0,1,0,.649A15.977,15.977,0,0,1,49.415,176.279Zm-10.458-5.114a15.144,15.144,0,0,0,20.916,0,15.143,15.143,0,0,0-20.916,0Z" transform="translate(-33.141 -144.102)" fill="#fafafa"/>
      <path id="Path_2891" data-name="Path 2891" d="M62.119,55.7c-2.526,0-4.88-1.709-6.628-4.812a23.377,23.377,0,0,1-2.638-11.276,23.377,23.377,0,0,1,2.638-11.276c1.748-3.1,4.1-4.812,6.628-4.812s4.88,1.709,6.628,4.812a23.377,23.377,0,0,1,2.638,11.276,23.378,23.378,0,0,1-2.638,11.276C67,53.987,64.645,55.7,62.119,55.7Zm0-31.253c-4.6,0-8.342,6.8-8.342,15.165s3.742,15.165,8.342,15.165,8.342-6.8,8.342-15.165S66.719,24.443,62.119,24.443Z" transform="translate(-45.846 -23.519)" fill="#fafafa"/>
      <path id="Path_2892" data-name="Path 2892" d="M39.431,125.924H7.808a.462.462,0,0,1,0-.924H39.431a.462.462,0,1,1,0,.924Z" transform="translate(-7.346 -109.373)" fill="#fafafa"/>
    </g>
    <path id="Path_2893" data-name="Path 2893" d="M22.481,53.953A16.476,16.476,0,1,1,38.962,37.476,16.5,16.5,0,0,1,22.481,53.953Zm0-32.337A15.861,15.861,0,1,0,38.346,37.476,15.881,15.881,0,0,0,22.481,21.616Z" fill="#707070"/>
    <path id="Path_2894" data-name="Path 2894" d="M145.246,110.971H129.232A1.232,1.232,0,0,1,128,109.739v-6.467a1.232,1.232,0,0,1,1.232-1.232h16.015a1.232,1.232,0,0,1,1.232,1.232v6.467A1.232,1.232,0,0,1,145.246,110.971Z" transform="translate(-103.214 -68.561)" fill="#00818a"/>
    <path id="Path_2895" data-name="Path 2895" d="M144.276,114.785a.594.594,0,0,0-.423-.166.538.538,0,0,0-.393.141.694.694,0,0,0-.177.281,3.393,3.393,0,0,0-.089.352l-.482,2.149-.536-1.979c-.059-.218-.106-.372-.143-.471a.793.793,0,0,0-.228-.318.7.7,0,0,0-.477-.156.73.73,0,0,0-.474.147.8.8,0,0,0-.246.33,4.232,4.232,0,0,0-.144.467l-.53,1.975-.481-2.144a2.019,2.019,0,0,0-.173-.527.5.5,0,0,0-.486-.248.589.589,0,0,0-.426.169.565.565,0,0,0-.175.419,1.978,1.978,0,0,0,.075.459l.786,3.178q.036.143.081.311a1.338,1.338,0,0,0,.132.324.66.66,0,0,0,.241.242.73.73,0,0,0,.368.087.678.678,0,0,0,.45-.147.767.767,0,0,0,.23-.314c.037-.1.085-.253.148-.476l.623-2.282.616,2.283c.064.227.113.385.149.481a.746.746,0,0,0,.229.311.683.683,0,0,0,.449.145.673.673,0,0,0,.461-.151.784.784,0,0,0,.223-.326c.038-.106.083-.265.138-.486l.786-3.178a2.128,2.128,0,0,0,.075-.458.56.56,0,0,0-.178-.422Z" transform="translate(-111.837 -79.203)"/>
    <path id="Path_2896" data-name="Path 2896" d="M186.678,115.48a.531.531,0,0,0-.267-.265.957.957,0,0,0-.4-.074H183.49a.639.639,0,0,0-.444.142.531.531,0,0,0,0,.762.638.638,0,0,0,.443.142h2v.851h-1.829a.619.619,0,0,0-.43.138.489.489,0,0,0-.158.373.5.5,0,0,0,.154.374.608.608,0,0,0,.435.144h1.829V119.1h-2.074a.636.636,0,0,0-.444.145.515.515,0,0,0-.164.392.507.507,0,0,0,.164.386.636.636,0,0,0,.444.145h2.6a.649.649,0,0,0,.74-.74v-3.548A.933.933,0,0,0,186.678,115.48Z" transform="translate(-149.582 -79.645)"/>
    <path id="Path_2897" data-name="Path 2897" d="M216.943,117.676a.556.556,0,0,0-.4-.163.489.489,0,0,0-.412.178,1.163,1.163,0,0,0-.174.345,1.09,1.09,0,0,1-.375.528,1,1,0,0,1-.607.176,1.064,1.064,0,0,1-.581-.156,1.011,1.011,0,0,1-.379-.476,2.225,2.225,0,0,1-.142-.856,1.89,1.89,0,0,1,.317-1.177.975.975,0,0,1,.817-.388.929.929,0,0,1,.536.147,1.3,1.3,0,0,1,.391.47,1.334,1.334,0,0,0,.235.339.535.535,0,0,0,.381.129.525.525,0,0,0,.393-.175.566.566,0,0,0,.157-.394,1.27,1.27,0,0,0-.266-.725,2.008,2.008,0,0,0-.741-.613,2.372,2.372,0,0,0-1.091-.245,2.513,2.513,0,0,0-.943.178,2.235,2.235,0,0,0-.778.524,2.34,2.34,0,0,0-.509.825,3.109,3.109,0,0,0-.175,1.074,3.363,3.363,0,0,0,.069.695,2.752,2.752,0,0,0,.21.622,2.506,2.506,0,0,0,.341.531,2.038,2.038,0,0,0,.5.426,2.073,2.073,0,0,0,.6.239,3.186,3.186,0,0,0,.714.075,2.351,2.351,0,0,0,.923-.17,1.94,1.94,0,0,0,.66-.447,1.918,1.918,0,0,0,.379-.561,1.416,1.416,0,0,0,.123-.548A.547.547,0,0,0,216.943,117.676Z" transform="translate(-174.783 -79.203)"/>
    <path id="Path_2898" data-name="Path 2898" d="M143.554,109.587H127.54a1.542,1.542,0,0,1-1.54-1.54V101.58a1.542,1.542,0,0,1,1.54-1.54h16.015a1.542,1.542,0,0,1,1.54,1.54v6.467A1.542,1.542,0,0,1,143.554,109.587Zm-16.015-8.931a.925.925,0,0,0-.924.924v6.467a.925.925,0,0,0,.924.924h16.015a.925.925,0,0,0,.924-.924V101.58a.925.925,0,0,0-.924-.924Z" transform="translate(-101.522 -66.869)" fill="#fff"/>
    <path id="Path_2899" data-name="Path 2899" d="M141.08,118.424a.983.983,0,0,1-.646-.216,1.051,1.051,0,0,1-.321-.439c-.04-.106-.09-.267-.157-.506l-.321-1.191-.324,1.188c-.067.237-.116.4-.157.5a1.069,1.069,0,0,1-.319.441.978.978,0,0,1-.648.219,1.031,1.031,0,0,1-.523-.128.965.965,0,0,1-.352-.353,1.646,1.646,0,0,1-.163-.4c-.031-.114-.059-.22-.083-.317l-.786-3.179a2.213,2.213,0,0,1-.084-.533.875.875,0,0,1,.268-.64.9.9,0,0,1,.641-.257.8.8,0,0,1,.758.41,2.3,2.3,0,0,1,.2.609l.206.92.206-.767a4.417,4.417,0,0,1,.155-.5,1.107,1.107,0,0,1,.337-.455,1.028,1.028,0,0,1,.668-.216,1,1,0,0,1,.68.233,1.1,1.1,0,0,1,.313.442c.04.108.09.271.151.5l.211.778.21-.935a3.681,3.681,0,0,1,.1-.381,1,1,0,0,1,.254-.4.845.845,0,0,1,.608-.229.9.9,0,0,1,.635.251.87.87,0,0,1,.274.646,2.361,2.361,0,0,1-.084.531l-.786,3.179c-.059.236-.105.4-.147.515a1.087,1.087,0,0,1-.309.453.969.969,0,0,1-.665.229Zm-1.443-3.836h0a.308.308,0,0,1,.3.228l.616,2.283c.06.213.107.366.14.452a.446.446,0,0,0,.138.182.476.476,0,0,0,.51,0,.475.475,0,0,0,.138-.2c.034-.1.076-.245.129-.457l.786-3.178a1.831,1.831,0,0,0,.066-.384.254.254,0,0,0-.082-.2h0a.288.288,0,0,0-.211-.081.246.246,0,0,0-.176.052.391.391,0,0,0-.1.157,3.2,3.2,0,0,0-.08.319l-.483,2.153a.308.308,0,0,1-.294.241.312.312,0,0,1-.3-.228l-.536-1.979c-.056-.2-.1-.354-.134-.444a.5.5,0,0,0-.142-.194.407.407,0,0,0-.273-.079.436.436,0,0,0-.279.078.5.5,0,0,0-.154.2,3.983,3.983,0,0,0-.132.432l-.531,1.977a.308.308,0,0,1-.3.228h-.006a.308.308,0,0,1-.294-.241l-.481-2.144a1.769,1.769,0,0,0-.144-.449c-.011-.021-.047-.086-.215-.086a.284.284,0,0,0-.211.081.258.258,0,0,0-.083.2,1.668,1.668,0,0,0,.066.382l.786,3.18q.035.14.079.3a1.033,1.033,0,0,0,.1.249.352.352,0,0,0,.129.131.438.438,0,0,0,.215.045.377.377,0,0,0,.252-.075.461.461,0,0,0,.14-.188c.033-.087.08-.239.139-.45l.623-2.28a.307.307,0,0,1,.3-.226Z" transform="translate(-110.146 -77.511)" fill="#fff"/>
    <path id="Path_2900" data-name="Path 2900" d="M184.323,118.787h-2.6a.931.931,0,0,1-.652-.226.817.817,0,0,1-.264-.613.826.826,0,0,1,.265-.619.931.931,0,0,1,.651-.226h1.766v-.419H181.97a.9.9,0,0,1-.648-.23.813.813,0,0,1-.249-.6.8.8,0,0,1,.259-.6.914.914,0,0,1,.638-.218h1.521v-.235H181.8a.932.932,0,0,1-.651-.222.839.839,0,0,1,0-1.216.934.934,0,0,1,.651-.222h2.524a1.258,1.258,0,0,1,.525.1.841.841,0,0,1,.418.414,1.232,1.232,0,0,1,.1.533v3.548a.95.95,0,0,1-1.048,1.048Zm-2.6-1.068a.366.366,0,0,0-.236.064.211.211,0,0,0-.064.165.2.2,0,0,0,.064.158.366.366,0,0,0,.236.065h2.6a.508.508,0,0,0,.34-.093.513.513,0,0,0,.092-.339v-3.548a.643.643,0,0,0-.047-.271h0a.223.223,0,0,0-.116-.115.669.669,0,0,0-.269-.046H181.8a.375.375,0,0,0-.236.061.188.188,0,0,0-.06.151.2.2,0,0,0,.061.155.373.373,0,0,0,.236.061h2a.308.308,0,0,1,.308.308v.851a.308.308,0,0,1-.308.308h-1.829a.353.353,0,0,0-.223.058.179.179,0,0,0-.058.145.2.2,0,0,0,.058.151.343.343,0,0,0,.222.059H183.8a.308.308,0,0,1,.308.308v1.034a.308.308,0,0,1-.308.308h-2.074Z" transform="translate(-147.891 -77.955)" fill="#fff"/>
    <path id="Path_2901" data-name="Path 2901" d="M213.333,118.424a3.491,3.491,0,0,1-.783-.083,2.385,2.385,0,0,1-.689-.274,2.341,2.341,0,0,1-.572-.49,2.821,2.821,0,0,1-.384-.6,3.047,3.047,0,0,1-.233-.692,3.67,3.67,0,0,1-.076-.758,3.413,3.413,0,0,1,.194-1.18,2.646,2.646,0,0,1,.576-.932,2.541,2.541,0,0,1,.884-.6,2.816,2.816,0,0,1,1.058-.2,2.677,2.677,0,0,1,1.231.279,2.313,2.313,0,0,1,.852.709,1.568,1.568,0,0,1,.323.9.876.876,0,0,1-.238.6.879.879,0,0,1-1.212.061,1.593,1.593,0,0,1-.3-.419,1,1,0,0,0-.293-.36.632.632,0,0,0-.361-.092.667.667,0,0,0-.574.27,1.6,1.6,0,0,0-.251.988,1.927,1.927,0,0,0,.118.736.714.714,0,0,0,.26.336.762.762,0,0,0,.415.108.7.7,0,0,0,.427-.118.792.792,0,0,0,.265-.384,1.439,1.439,0,0,1,.219-.427.785.785,0,0,1,.656-.3.866.866,0,0,1,.615.25.855.855,0,0,1,.262.627,1.717,1.717,0,0,1-.148.668,2.219,2.219,0,0,1-.439.652,2.247,2.247,0,0,1-.763.519A2.642,2.642,0,0,1,213.333,118.424Zm-.026-5.189a2.2,2.2,0,0,0-.828.156,1.926,1.926,0,0,0-.671.452,2.037,2.037,0,0,0-.441.717,2.805,2.805,0,0,0-.156.967,3.054,3.054,0,0,0,.063.631,2.438,2.438,0,0,0,.186.553,2.2,2.2,0,0,0,.3.466,1.719,1.719,0,0,0,.419.36,1.758,1.758,0,0,0,.511.2,2.872,2.872,0,0,0,.644.067,2.045,2.045,0,0,0,.8-.145,1.635,1.635,0,0,0,.557-.374,1.611,1.611,0,0,0,.32-.47,1.11,1.11,0,0,0,.1-.428.239.239,0,0,0-.075-.185h0a.248.248,0,0,0-.186-.075c-.124,0-.156.042-.168.057a.861.861,0,0,0-.125.253,1.4,1.4,0,0,1-.488.683,1.3,1.3,0,0,1-.787.233,1.365,1.365,0,0,1-.746-.2,1.312,1.312,0,0,1-.5-.616,2.523,2.523,0,0,1-.167-.976,2.183,2.183,0,0,1,.382-1.366,1.281,1.281,0,0,1,1.06-.507,1.227,1.227,0,0,1,.71.2,1.6,1.6,0,0,1,.488.579,1.038,1.038,0,0,0,.175.261.265.265,0,0,0,.169.044.218.218,0,0,0,.167-.076.26.26,0,0,0,.075-.185.975.975,0,0,0-.21-.547,1.706,1.706,0,0,0-.63-.517A2.064,2.064,0,0,0,213.307,113.235Z" transform="translate(-173.09 -77.511)" fill="#fff"/>
  </g>
</svg>
