<svg xmlns="http://www.w3.org/2000/svg" width="40.486" height="47.439" viewBox="0 0 40.486 47.439"><g id="surface1" transform="translate(-0.025 0.506)"><path id="Path_2655" fill="#04a3ae" stroke="#00818a" stroke-width="1" d="M37.947,31a23.423,23.423,0,0,1-5.61,8.739,29.364,29.364,0,0,1-10.964,6.5,3.354,3.354,0,0,1-1.065.188h-.04a3.4,3.4,0,0,1-.654-.064,3.542,3.542,0,0,1-.449-.123A29.362,29.362,0,0,1,8.188,39.747,23.378,23.378,0,0,1,2.58,31.009C.314,24.861.443,18.087.547,12.643l0-.084c.021-.449.034-.922.042-1.443A4.92,4.92,0,0,1,5.223,6.3a19.094,19.094,0,0,0,13-5.478L18.249.79a2.974,2.974,0,0,1,4.038,0l.03.028a19.1,19.1,0,0,0,13,5.478,4.92,4.92,0,0,1,4.633,4.82c.007.525.021,1,.042,1.443V12.6C40.093,18.049,40.221,24.836,37.947,31Zm0,0" data-name="Path 2655" transform="translate(0 0)"/><path id="Path_2656" fill="#00818a" stroke="#00818a" stroke-width="1" d="M236.588,31.006a23.422,23.422,0,0,1-5.61,8.739,29.364,29.364,0,0,1-10.964,6.5,3.354,3.354,0,0,1-1.065.188V0a2.978,2.978,0,0,1,1.979.79l.03.028a19.1,19.1,0,0,0,13,5.478,4.92,4.92,0,0,1,4.633,4.82c.007.525.021,1,.042,1.443V12.6C238.734,18.052,238.862,24.839,236.588,31.006Zm0,0" data-name="Path 2656" transform="translate(-198.641 -0.003)"/><path id="Path_2657" fill="#fff" stroke="#00818a" stroke-width="1" d="M114.036,139.968a11.585,11.585,0,0,1-11.53,11.571h-.041a11.571,11.571,0,1,1,0-23.141h.041A11.585,11.585,0,0,1,114.036,139.968Zm0,0" data-name="Path 2657" transform="translate(-82.198 -116.755)"/><path id="Path_2658" fill="#e1ebf0" stroke="#00818a" stroke-width="1" d="M230.479,139.968a11.585,11.585,0,0,1-11.53,11.571V128.4A11.585,11.585,0,0,1,230.479,139.968Zm0,0" data-name="Path 2658" transform="translate(-198.641 -116.755)"/><path id="Path_2659" fill="#b4d2d7" stroke="#00818a" stroke-width="1" d="M165.262,214.305l-5.211,5.212-1.126,1.126a1.364,1.364,0,0,1-1.927,0l-2.421-2.422a1.362,1.362,0,1,1,1.926-1.926l1.459,1.459,5.374-5.374a1.362,1.362,0,1,1,1.926,1.926Zm0,0" data-name="Path 2659" transform="translate(-139.743 -192.758)"/><path id="Path_2660" fill="#00818a" stroke="#00818a" stroke-width="1" d="M224.16,214.305l-5.211,5.212v-3.853l3.285-3.284a1.362,1.362,0,0,1,1.926,1.926Zm0,0" data-name="Path 2660" opacity=".16" transform="translate(-198.641 -192.758)"/></g></svg>