<svg xmlns="http://www.w3.org/2000/svg" width="37" height="33" viewBox="0 0 37 33"><g id="announce" transform="translate(-9 -31.52)"><path id="Path_2618" fill="#00818a" d="M375.264,192.96a4.634,4.634,0,1,1-4.634,4.634,4.634,4.634,0,0,1,4.634-4.634Z" data-name="Path 2618" transform="translate(-335.049 -149.574)"/><path id="Path_2619" fill="#00818a" d="M333.423,37.52a4.633,4.633,0,1,1-4.633,4.633,4.633,4.633,0,0,1,4.633-4.633Z" data-name="Path 2619" transform="translate(-296.284 -5.559)"/><path id="Path_2620" fill="#00818a" d="M333.423,348.41a4.633,4.633,0,1,1-4.633,4.633A4.633,4.633,0,0,1,333.423,348.41Z" data-name="Path 2620" transform="translate(-296.284 -293.598)"/><path id="Path_2621" fill="#00818a" d="M102.211,172.3l-1.911-.359v-9.7l11.761-2.205v14.107Z" data-name="Path 2621" transform="translate(-84.589 -119.073)"/><path id="Path_2622" fill="#00818a" d="M82.291,322.319v7.8H78.8V321.96h1.58Z" data-name="Path 2622" transform="translate(-64.669 -269.092)"/><path id="Path_2623" fill="#00818a" d="M55.828,190.04v9.7H53.991a1.691,1.691,0,0,1-1.691-1.691v-6.315a1.691,1.691,0,0,1,1.691-1.691Z" data-name="Path 2623" transform="translate(-40.117 -146.868)"/><path id="Path_2624" fill="#00818a" d="M18.02,215.5v5.954H16.77a1.47,1.47,0,0,1-1.47-1.47V216.97a1.47,1.47,0,0,1,1.47-1.47Z" data-name="Path 2624" transform="translate(-5.837 -170.457)"/><g id="Group_9788" data-name="Group 9788" transform="translate(9 31.52)"><path id="Path_2625" fill="#293462" d="M369.7,186.96a5.075,5.075,0,1,0,5.074,5.074,5.075,5.075,0,0,0-5.074-5.074Zm0,9.267a4.193,4.193,0,1,1,4.192-4.192A4.193,4.193,0,0,1,369.7,196.227Z" data-name="Path 2625" transform="translate(-338.481 -175.535)"/><path id="Path_2627" fill="#293462" d="M327.864,41.669a5.074,5.074,0,1,0-5.074-5.074A5.074,5.074,0,0,0,327.864,41.669Zm0-9.267a4.192,4.192,0,1,1-4.192,4.192A4.192,4.192,0,0,1,327.864,32.4Z" data-name="Path 2627" transform="translate(-299.725 -31.52)"/><path id="Path_2629" fill="#293462" d="M322.79,347.485a5.074,5.074,0,1,0,5.074-5.075,5.074,5.074,0,0,0-5.074,5.075Zm5.074-4.193a4.192,4.192,0,1,1-4.192,4.192A4.192,4.192,0,0,1,327.864,343.292Z" data-name="Path 2629" transform="translate(-299.725 -319.559)"/><path id="Path_2631" fill="#293462" d="M10.933,164.971h.825A2.126,2.126,0,0,0,13.7,166.8v7.729a.429.429,0,0,0,.426.441h3.491a.423.423,0,0,0,.419-.441v-7.272L27.379,169a.5.5,0,0,0,.087.007.419.419,0,0,0,.273-.1.434.434,0,0,0,.151-.339V154.463a.426.426,0,0,0-.506-.435l-11.715,2.2h-1.8a2.128,2.128,0,0,0-2.115,1.911h-.825A1.9,1.9,0,0,0,9,160.01v3.014a1.964,1.964,0,0,0,1.933,1.948Zm6.226,9.114H14.586v-7.277H15.67l1.489.28Zm9.849-6.047-9.18-1.723a.418.418,0,0,0-.212-.058.559.559,0,0,0-.072.005L16.13,166v-8.964l10.878-2.04ZM12.6,158.359a1.272,1.272,0,0,1,1.272-1.252h1.375v8.82H13.873a1.272,1.272,0,0,1-1.272-1.253Zm-2.72,1.651a1.019,1.019,0,0,1,1.051-.992h.786v5.072h-.786a1.081,1.081,0,0,1-1.051-1.066Z" data-name="Path 2631" transform="translate(-9 -145.016)"/><path id="Path_2632" fill="#00818a" d="M294.043,250h-3.6a.441.441,0,1,0,0,.882h3.6a.441.441,0,0,0,0-.882Z" data-name="Path 2632" transform="translate(-269.346 -233.941)"/><path id="Path_2633" fill="#00818a" d="M278.736,182.35a.438.438,0,0,0,.186-.041l3.161-1.47a.441.441,0,1,0-.372-.8l-3.161,1.47a.441.441,0,0,0,.186.841Z" data-name="Path 2633" transform="translate(-258.5 -169.084)"/><path id="Path_2634" fill="#00818a" d="M278.554,300.84l3.161,1.47a.441.441,0,1,0,.372-.8l-3.161-1.47a.441.441,0,1,0-.372.8Z" data-name="Path 2634" transform="translate(-258.504 -280.265)"/></g><text id="_" fill="#fff" data-name="₹" font-family="SegoeUI, Segoe UI" font-size="5" transform="translate(36 56.52)"><tspan x="0" y="5">₹</tspan></text><text id="_2" fill="#fff" data-name="₹" font-family="SegoeUI, Segoe UI" font-size="5" transform="translate(39 45.52)"><tspan x="0" y="5">₹</tspan></text><text id="_3" fill="#fff" data-name="₹" font-family="SegoeUI, Segoe UI" font-size="5" transform="translate(36 33.52)"><tspan x="0" y="5">₹</tspan></text></g></svg>