<svg xmlns="http://www.w3.org/2000/svg" width="30.674" height="20.45" viewBox="0 0 30.674 20.45">
  <g id="tuk-tuk" transform="translate(0 -85.333)">
    <g id="Group_9852" data-name="Group 9852" transform="translate(0 85.333)">
      <g id="Group_9851" data-name="Group 9851" transform="translate(0 0)">
        <path id="Path_3119" data-name="Path 3119" d="M30.163,95.558h-.511v-.767a.256.256,0,0,0-.256-.256H20.705a.256.256,0,0,0-.256.256v.449a.257.257,0,0,1-.075.181l-1.821,1.821a.511.511,0,0,0-.15.361v1.789a.256.256,0,0,1-.256.256H15.082a.256.256,0,0,1-.256-.256V88.656a.256.256,0,0,1,.256-.256h5.112a.255.255,0,0,1,.256.256v4.6a.256.256,0,0,0,.256.256H29.4a.256.256,0,0,0,.256-.256V89.934a4.9,4.9,0,0,0-4.09-4.6H9.2a.437.437,0,0,0-.052,0c-3.262.33-5.275,5.93-5.954,8.177h-.64a.511.511,0,0,0-.511.511v1.534a.511.511,0,0,0,.511.511H4.09v1.048A5.113,5.113,0,0,0,.17,98.394a.511.511,0,0,0,.682.762,4.217,4.217,0,0,1,5.79.228A3.727,3.727,0,0,1,7.669,102.2a.511.511,0,0,0,.511.514H21.513a3.574,3.574,0,0,0,7.076,0h.552a.511.511,0,0,0,.511-.511V98.625h.511a.511.511,0,0,0,.511-.511V96.069A.511.511,0,0,0,30.163,95.558ZM6.788,92.926a.256.256,0,0,1-.361.161L4.91,92.328a.257.257,0,0,1-.126-.321,15.053,15.053,0,0,1,2.325-4.292.256.256,0,0,1,.337-.042l.5.335a.255.255,0,0,1,.1.28Zm7.015.331a.255.255,0,0,1-.256.256H8.022a.255.255,0,0,1-.246-.323l1.255-4.6a.255.255,0,0,1,.246-.188h4.271a.255.255,0,0,1,.256.256Zm11.247,11.5a2.561,2.561,0,0,1-2.5-2.045h5.009A2.56,2.56,0,0,1,25.051,104.76Z" transform="translate(0 -85.333)" fill="#707070"/>
      </g>
    </g>
    <path id="Path_3136" data-name="Path 3136" d="M12.837,52.156a3.18,3.18,0,0,0-3.03,3.312,3.511,3.511,0,0,0,.027.416,3.135,3.135,0,0,0,3,2.895,3.151,3.151,0,0,0,3.018-3.029c.007-.093.013-.187.013-.282A3.179,3.179,0,0,0,12.837,52.156ZM11.32,54.22l.618.675a1.2,1.2,0,0,0-.11.291h-.871A2.152,2.152,0,0,1,11.32,54.22Zm-.367,1.54h.878a1.169,1.169,0,0,0,.11.287l-.619.676A2.178,2.178,0,0,1,10.953,55.759Zm1.622,1.765a1.806,1.806,0,0,1-.879-.4l.616-.674a1,1,0,0,0,.263.117Zm0-3.159a1.006,1.006,0,0,0-.268.122l-.617-.674a1.8,1.8,0,0,1,.885-.4Zm.525-.953a1.8,1.8,0,0,1,.885.4l-.617.674a1.006,1.006,0,0,0-.268-.122v-.953Zm0,4.111V56.57a.987.987,0,0,0,.263-.117l.616.674A1.806,1.806,0,0,1,13.1,57.524Zm1.255-.8-.621-.68a1.176,1.176,0,0,0,.113-.286h.871A2.174,2.174,0,0,1,14.354,56.726Zm-.507-1.54a1.222,1.222,0,0,0-.11-.291l.618-.675a2.175,2.175,0,0,1,.363.967h-.871Z" transform="translate(-9.261 47.004)" fill="#707070"/>
  </g>
</svg>
