<svg xmlns="http://www.w3.org/2000/svg" width="39" height="39" viewBox="0 0 39 39">
  <g id="flat" transform="translate(-24 -24)">
    <path id="Path_2585" data-name="Path 2585" d="M72,192h2.679v12.725H72Z" transform="translate(-43.982 -153.935)" fill="#293462"/>
    <path id="Path_2586" data-name="Path 2586" d="M200,192h2.679v12.725H200Z" transform="translate(-161.266 -153.935)" fill="#293462"/>
    <g id="Group_9775" data-name="Group 9775" transform="translate(26.679 36.055)">
      <path id="Path_2587" data-name="Path 2587" d="M56,328h5.358v3.349H56Z" transform="translate(-56 -314.605)" fill="#00818a"/>
      <path id="Path_2588" data-name="Path 2588" d="M184,328h5.358v3.349H184Z" transform="translate(-173.284 -314.605)" fill="#00818a"/>
      <path id="Path_2589" data-name="Path 2589" d="M56,168h5.358v3.349H56Z" transform="translate(-56 -168)" fill="#00818a"/>
      <path id="Path_2590" data-name="Path 2590" d="M184,168h5.358v3.349H184Z" transform="translate(-173.284 -168)" fill="#00818a"/>
    </g>
    <path id="Path_2591" data-name="Path 2591" d="M56,168h5.358v1.339H56Z" transform="translate(-29.321 -131.945)" fill="#019faa"/>
    <path id="Path_2592" data-name="Path 2592" d="M184,168h5.358v1.339H184Z" transform="translate(-146.605 -131.945)" fill="#019faa"/>
    <path id="Path_2593" data-name="Path 2593" d="M24,34.046H56.148L40.074,24Z" fill="#00818a"/>
    <path id="Path_2612" data-name="Path 2612" d="M2.009,0A2.009,2.009,0,1,1,0,2.009,2.009,2.009,0,0,1,2.009,0Z" transform="translate(38.065 27.349)" fill="#d4f7f9"/>
    <path id="Path_2594" data-name="Path 2594" d="M24,144H53.469v2.679H24Z" transform="translate(0 -109.954)" fill="#0db8c4"/>
    <path id="Path_2595" data-name="Path 2595" d="M40,360H68.8v4.018H40Z" transform="translate(-14.661 -307.871)" fill="#045c63"/>
    <path id="Path_2596" data-name="Path 2596" d="M24,392H56.148v2.679H24Z" transform="translate(0 -337.192)" fill="#00818a"/>
    <rect id="Rectangle_2484" data-name="Rectangle 2484" width="18" height="29" rx="2" transform="translate(45 34)" fill="#c6e9fd"/>
    <path id="Path_2597" data-name="Path 2597" d="M280,245.992v2.04a2.679,2.679,0,0,0,2.679,2.679h12.055a2.679,2.679,0,0,0,2.679-2.679v-19A23.054,23.054,0,0,1,280,245.992Z" transform="translate(-234.568 -187.866)" fill="#0db8c4"/>
    <path id="Path_2598" data-name="Path 2598" d="M336,144v1.339a1.339,1.339,0,0,0,1.339,1.339H342.7a1.339,1.339,0,0,0,1.339-1.339V144Z" transform="translate(-285.88 -109.954)" fill="gray"/>
    <path id="Path_2613" data-name="Path 2613" d="M6.028,0A6.028,6.028,0,1,1,0,6.028,6.028,6.028,0,0,1,6.028,0Z" transform="translate(48.111 42.083)" fill="#293462"/>
    <path id="Path_2600" data-name="Path 2600" d="M360,448h4.018v1.339H360Z" transform="translate(-307.871 -388.504)" fill="#606060"/>
    <path id="Path_2601" data-name="Path 2601" d="M198.268,67.506a2.009,2.009,0,0,1-2.762,2.762,2.009,2.009,0,1,0,2.762-2.762Z" transform="translate(-157.148 -39.864)" fill="#293462"/>
    <text id="_" data-name="₹" transform="translate(52 44)" fill="#fafafa" font-size="8" font-family="SegoeUI, Segoe UI"><tspan x="0" y="9">₹</tspan></text>
  </g>
</svg>
