<svg xmlns="http://www.w3.org/2000/svg" width="38.17" height="31.252" viewBox="0 0 38.17 31.252"><g id="Group_10131" data-name="Group 10131" transform="translate(-4526 1722)"><g id="earn-money" transform="translate(4526 -1710.998)"><path id="Path_2602" fill="#00818a" d="M381.314,315.723h-9.291v14.244h9.291a1.144,1.144,0,0,0,1.144-1.144V316.867a1.144,1.144,0,0,0-1.144-1.144Zm0,0" data-name="Path 2602" transform="translate(-344.288 -309.717)"/><path id="Path_2603" fill="#00818a" d="M1.144,362.508A1.144,1.144,0,0,0,0,363.652v8.468a1.144,1.144,0,0,0,1.144,1.144H10.55V362.508Zm0,0" data-name="Path 2603" transform="translate(0 -353.014)"/><path id="Path_2604" fill="#00818a" d="M184.808,236.3a1.144,1.144,0,0,0-1.144-1.144H173.228a1.142,1.142,0,0,0-1.03.648v19.6h12.609Zm0,0" data-name="Path 2604" transform="translate(-159.361 -235.16)"/></g><text id="_" fill="#00818a" data-name="₹" font-family="SegoeUI, Segoe UI" font-size="8" transform="translate(4542 -1722)"><tspan x="0" y="9">₹</tspan></text></g></svg>