<svg xmlns="http://www.w3.org/2000/svg" width="38" height="38" viewBox="0 0 38 38">
  <g id="Group_9689" data-name="Group 9689" transform="translate(-583 -37)">
    <circle id="Ellipse_3" data-name="Ellipse 3" cx="19" cy="19" r="19" transform="translate(583 37)" fill="#f1f1f1"/>
    <g id="turn-on" transform="translate(594 -64)">
      <path id="Path_211" data-name="Path 211" d="M8.689,112.467a8.689,8.689,0,1,0,8.689,8.688A8.7,8.7,0,0,0,8.689,112.467Zm0,16.072a7.384,7.384,0,1,1,7.384-7.384A7.392,7.392,0,0,1,8.689,128.539Z" transform="translate(-1 -1)"/>
      <path id="Path_212" data-name="Path 212" d="M88.278,223.59a.652.652,0,0,0,0,.923,3.89,3.89,0,1,1-5.5,0,.652.652,0,1,0-.923-.922,5.195,5.195,0,1,0,7.345,0A.652.652,0,0,0,88.278,223.59Z" transform="translate(-77.839 -107.107)"/>
      <path id="Path_213" data-name="Path 213" d="M185.419,196.551a.652.652,0,0,0,.652-.652v-2.446a.652.652,0,1,0-1.3,0V195.9A.652.652,0,0,0,185.419,196.551Z" transform="translate(-177.731 -78.839)"/>
    </g>
  </g>
</svg>
