<svg xmlns="http://www.w3.org/2000/svg" width="23.187" height="22.916" viewBox="0 0 23.187 22.916"><g transform="translate(0 -2)"><g transform="translate(17.387 11.863)"><path d="M386.984,222.963a5.9,5.9,0,0,0-2.41-2.133.453.453,0,1,0-.392.816,4.986,4.986,0,0,1,2.246,6.829.453.453,0,1,0,.8.425,5.894,5.894,0,0,0-.242-5.938Z" transform="translate(-383.924 -220.785)" fill="#707070"/></g><g transform="translate(13.715 12.329)"><path d="M347.483,209h-.03a.453.453,0,1,0,0,.906h.028a.453.453,0,0,0,0-.906Z" transform="translate(-347 -209.001)" fill="#707070"/></g><g transform="translate(9.601 14.215)"><path d="M215.734,280.206a4.986,4.986,0,0,1-2.246-6.829.453.453,0,0,0-.8-.425,5.89,5.89,0,0,0,2.653,8.071.453.453,0,1,0,.392-.816Z" transform="translate(-212.002 -272.711)" fill="#707070"/></g><g transform="translate(14.328 23.198)"><g transform="translate(2 -1)"><path d="M316.859,449h-.026a.453.453,0,0,0,0,.906h.03a.453.453,0,0,0,0-.906Z" transform="translate(-316.378 -448.999)" fill="#707070"/></g></g><g transform="translate(0 2)"><g transform="translate(0 0)"><path d="M17.545,10.8a2.078,2.078,0,0,0-.2-.37h1.179a2.083,2.083,0,0,0,0-4.166H14.9A2.082,2.082,0,0,0,13.179,3H2.083a2.083,2.083,0,0,0,0,4.166H5.71a2.077,2.077,0,0,0,0,2.355H4.529a2.082,2.082,0,0,0-1.295,3.714,2.079,2.079,0,0,0,0,3.261,2.079,2.079,0,0,0,0,3.261A2.082,2.082,0,0,0,4.529,23.47H9.866A7.7,7.7,0,1,0,17.545,10.8Zm.978-3.631a1.177,1.177,0,0,1,0,2.355H7.427a1.177,1.177,0,1,1,0-2.355ZM2.083,6.261a1.177,1.177,0,0,1,0-2.355h11.1a1.177,1.177,0,1,1,0,2.355Zm2.446,4.166h11.1a1.177,1.177,0,0,1,.514.118c-.214-.018-.431-.028-.65-.028a7.675,7.675,0,0,0-5.448,2.264H4.529a1.177,1.177,0,1,1,0-2.355Zm0,3.261H9.267A7.677,7.677,0,0,0,8.1,16.043H4.529a1.177,1.177,0,0,1,0-2.355Zm0,3.261H7.895A7.705,7.705,0,0,0,7.867,19.3H4.529a1.177,1.177,0,1,1,0-2.355Zm0,5.616a1.177,1.177,0,0,1,0-2.355H8.052a7.669,7.669,0,0,0,1.087,2.355Zm10.96,2.446a6.793,6.793,0,1,1,6.793-6.793A6.8,6.8,0,0,1,15.488,25.01Z" transform="translate(0 -3)" fill="#707070"/></g></g><text transform="translate(13 13)" fill="#707070" font-size="8" font-family="SegoeUI, Segoe UI"><tspan x="0" y="9">₹</tspan></text></g></svg>