<svg xmlns="http://www.w3.org/2000/svg" width="23.303" height="23.303" viewBox="0 0 23.303 23.303"><g transform="translate(9.111 16.771)"><path d="M200.957,368.623a.455.455,0,1,0,.133.322A.457.457,0,0,0,200.957,368.623Z" transform="translate(-200.18 -368.49)" fill="#707070"/></g><path d="M19.979,7.841H18.41a3.1,3.1,0,0,0,.916-2.2V.455A.455.455,0,0,0,18.871,0H15.33A2.234,2.234,0,0,0,13.1,2.231v1.5s0,.006,0,.009,0,.006,0,.009V5.638a3.1,3.1,0,0,0,.916,2.2H9.105a3.1,3.1,0,0,0,.916-2.2V.455A.455.455,0,0,0,9.566,0H6.025A2.234,2.234,0,0,0,3.794,2.231v1.5s0,.006,0,.009,0,.006,0,.009V5.638a3.1,3.1,0,0,0,.916,2.2H3.682A3.686,3.686,0,0,0,0,11.523v5.7a.455.455,0,0,0,.455.455H7.646a.455.455,0,1,0,0-.91H2.968V13.833a.455.455,0,1,0-.91,0v2.938H.91V11.523A2.775,2.775,0,0,1,3.682,8.751H4.96l1.493,2.233V13.7a.455.455,0,1,0,.91,0V11L9.025,8.751h1.65a2.416,2.416,0,0,1,2.413,2.413v1.867a.455.455,0,1,0,.91,0V11.165a3.314,3.314,0,0,0-1.042-2.413h1.216L15.742,11.1a.455.455,0,0,0,.367.2h.011a.455.455,0,0,0,.366-.184l1.752-2.366h1.741a2.416,2.416,0,0,1,2.413,2.413v1.867a.455.455,0,1,0,.91,0V11.165A3.328,3.328,0,0,0,19.979,7.841ZM4.7,2.231A1.322,1.322,0,0,1,6.025.91H9.111V2.016A1.258,1.258,0,0,1,7.855,3.272H4.7Zm2.222,7.825-.872-1.3H7.892ZM6.907,7.841a2.206,2.206,0,0,1-2.2-2.2V4.182H7.855a2.154,2.154,0,0,0,1.256-.4V5.638A2.206,2.206,0,0,1,6.907,7.841Zm7.1-5.61h0A1.322,1.322,0,0,1,15.33.91h3.086V2.016a1.258,1.258,0,0,1-1.256,1.256H14.009V2.231Zm2.131,7.825-.872-1.3h1.838Zm.073-2.215a2.206,2.206,0,0,1-2.2-2.2V4.182h3.151a2.154,2.154,0,0,0,1.256-.4V5.638A2.206,2.206,0,0,1,16.212,7.841Z" fill="#707070"/><g transform="translate(11.196 12.262)"><path d="M256.44,271.364h-2.117v-.875a1.087,1.087,0,0,0-1.086-1.086h-2.37a1.087,1.087,0,0,0-1.086,1.086v.875h-2.117A1.667,1.667,0,0,0,246,273.029v5.749a1.668,1.668,0,0,0,1.666,1.666h8.776a1.667,1.667,0,0,0,1.666-1.666v-5.749A1.667,1.667,0,0,0,256.44,271.364Zm-5.573-1.051h2.37a.176.176,0,0,1,.175.175v.875h-2.721v-.875h0A.176.176,0,0,1,250.867,270.313Zm6.328,8.466a.756.756,0,0,1-.755.755h-8.776a.756.756,0,0,1-.755-.755v-3.29h3.931v.074a1.212,1.212,0,0,0,2.423,0v-.074H257.2Zm-5.444-3.215v-.6h.6v.6a.3.3,0,0,1-.6,0Zm5.444-.985h-3.931V274.5a.455.455,0,0,0-.455-.455H251.3a.455.455,0,0,0-.455.455v.074h-3.931v-1.55a.756.756,0,0,1,.755-.755h8.776a.756.756,0,0,1,.755.755Z" transform="translate(-245.999 -269.403)" fill="#707070"/></g></svg>