<svg xmlns="http://www.w3.org/2000/svg" width="23.716" height="23.716" viewBox="0 0 23.716 23.716"><path d="M20.243,3.473a11.858,11.858,0,1,0-16.77,16.77,11.858,11.858,0,1,0,16.77-16.77Zm-8.385,19.3A10.912,10.912,0,1,1,22.77,11.858,10.924,10.924,0,0,1,11.858,22.77Z" fill="#00818a"/><path d="M47.982,38.13a9.853,9.853,0,1,0,9.853,9.853A9.864,9.864,0,0,0,47.982,38.13Zm1.173,16.887H46.808a9.879,9.879,0,0,0-6.038-6.423l.811-3.444a27.163,27.163,0,0,1,12.8,0l.811,3.443A9.878,9.878,0,0,0,49.155,55.017Zm-10.08-7.034a8.892,8.892,0,0,1,.271-2.185c.4-.134.8-.258,1.2-.373l-.68,2.886q-.388-.1-.788-.171C39.077,48.088,39.075,48.036,39.075,47.983Zm17.024.328-.68-2.886c.4.115.8.24,1.2.373a8.894,8.894,0,0,1,.271,2.184c0,.052,0,.1,0,.157Q56.487,48.21,56.1,48.311Zm-8.117-9.235a8.921,8.921,0,0,1,8.274,5.611c-.452-.14-.908-.269-1.363-.384a28.124,28.124,0,0,0-13.823,0c-.455.116-.91.245-1.363.385A8.921,8.921,0,0,1,47.982,39.076ZM39.147,49.116a8.914,8.914,0,0,1,7.056,7.6A8.929,8.929,0,0,1,39.147,49.116Zm8.024,7.737q-.045-.45-.13-.889h1.881q-.085.438-.13.889c-.267.024-.537.037-.81.037S47.439,56.877,47.171,56.853Zm2.589-.141a8.913,8.913,0,0,1,7.057-7.6A8.929,8.929,0,0,1,49.76,56.712Z" transform="translate(-36.124 -36.125)" fill="#00818a"/><path d="M177.033,174.343a2.691,2.691,0,1,0,2.691,2.691A2.694,2.694,0,0,0,177.033,174.343Zm0,4.436a1.745,1.745,0,1,1,1.745-1.745A1.747,1.747,0,0,1,177.033,178.779Z" transform="translate(-165.175 -165.176)" fill="#00818a"/></svg>